<svg width="24" height="23" viewBox="0 0 24 23" fill="none" xmlns="http://www.w3.org/2000/svg">
<path d="M19.3146 0H7.32739C3.28733 0 0 3.28069 0 7.31259V22.0801C0 22.4201 0.18664 22.7311 0.486849 22.8911C0.623308 22.964 0.772972 23 0.921756 23C1.10047 23 1.27919 22.9482 1.43414 22.8445L5.77176 19.9504C6.07725 19.7465 6.43205 19.6394 6.79916 19.6394H16.6726C20.7127 19.6394 24 16.3587 24 12.3268V4.67591C24 2.09722 21.8977 0 19.3146 0ZM22.2102 12.3276C22.2102 15.3746 19.7266 17.8532 16.6735 17.8532H6.79916C6.07725 17.8532 5.37735 18.0649 4.77693 18.4655L1.78981 20.4582V7.31171C1.78981 4.26473 4.27336 1.78619 7.32651 1.78619H19.3137C20.9108 1.78619 22.2093 3.08213 22.2093 4.67591V12.3276H22.2102ZM8.70694 10.1426C8.70694 10.7901 8.18048 11.3155 7.53164 11.3155C6.8828 11.3155 6.35721 10.791 6.35721 10.1426C6.35721 9.49416 6.8828 8.96963 7.53164 8.96963C8.18048 8.96963 8.70694 9.49416 8.70694 10.1426ZM13.1608 10.1426C13.1608 10.7901 12.6352 11.3155 11.9864 11.3155C11.3375 11.3155 10.811 10.791 10.811 10.1426C10.811 9.49416 11.3375 8.96963 11.9864 8.96963C12.6352 8.96963 13.1608 9.49416 13.1608 10.1426ZM17.612 10.1426C17.612 10.7901 17.0855 11.3155 16.4367 11.3155C15.7878 11.3155 15.2614 10.791 15.2614 10.1426C15.2614 9.49416 15.7878 8.96963 16.4367 8.96963C17.0855 8.96963 17.612 9.49416 17.612 10.1426Z" fill="#EB5B3E"/>
</svg>
