<svg width="23" height="26" viewBox="0 0 23 26" fill="none" xmlns="http://www.w3.org/2000/svg">
<path d="M22.7769 6.6338C22.7579 6.56793 22.7315 6.50293 22.6956 6.4408C22.6596 6.37853 22.6163 6.32345 22.5686 6.27383C22.3892 6.02216 22.157 5.80658 21.881 5.64767L12.5839 0.291871C11.908 -0.0974343 11.0683 -0.0971467 10.3928 0.291871L1.09569 5.64781C0.819679 5.80672 0.587482 6.0223 0.408038 6.27398C0.360186 6.32345 0.31709 6.37867 0.281057 6.44095C0.245024 6.50307 0.218792 6.56808 0.199767 6.63395C0.0710571 6.91482 0 7.22344 0 7.54127V18.253C0 19.0318 0.419857 19.7573 1.09569 20.1465L10.3929 25.5024C10.5314 25.5822 10.6772 25.6448 10.8266 25.6918C10.9853 25.8801 11.2228 26 11.4886 26C11.7544 26 11.9919 25.8801 12.1506 25.6918C12.3001 25.6448 12.4457 25.5822 12.5843 25.5024L21.8813 20.1465C22.5571 19.7573 22.9771 19.0318 22.9771 18.253V7.54127C22.9771 7.2233 22.906 6.91481 22.7773 6.6338H22.7769ZM11.2574 1.78639C11.3286 1.7454 11.4085 1.72484 11.4883 1.72484C11.5682 1.72484 11.6479 1.7454 11.7192 1.78639L20.3823 6.77704L16.7414 8.87443C16.6131 8.75679 16.4718 8.65137 16.3178 8.56278L7.90607 3.7171L11.2574 1.78639ZM11.8796 11.6752C11.6381 11.8144 11.3384 11.8143 11.0969 11.6752L2.59423 6.77718L6.17635 4.71359L15.0704 9.83712L11.8796 11.6752ZM1.9602 18.6519C1.81794 18.57 1.72944 18.4171 1.72944 18.2531V8.2717L10.2321 13.1699C10.358 13.2424 10.4892 13.3019 10.6235 13.3509V23.6427L1.9602 18.6519ZM21.0162 18.6519L12.3531 23.6427V13.3508C12.4873 13.3018 12.6185 13.2424 12.7444 13.1697L15.7989 11.4102L15.8016 14.1178C15.8019 14.3891 16.097 14.5578 16.3317 14.4209L17.1572 13.9397C17.3891 13.8045 17.5316 13.5565 17.5312 13.2884L17.5278 10.6515C17.5278 10.5743 17.5226 10.4977 17.5151 10.4216L21.2471 8.2717V18.253C21.2471 18.4171 21.1587 18.5698 21.0162 18.6518V18.6519Z" fill="#E9ECEF"/>
</svg>
