<svg width="21" height="22" viewBox="0 0 21 22" fill="none" xmlns="http://www.w3.org/2000/svg">
<path d="M18.6255 22H2.24589C1.00753 22 0 20.9926 0 19.7541V9.44843C0 7.86327 0.760256 6.35339 2.0335 5.4093L8.42976 0.667161C9.6296 -0.222252 11.2417 -0.222521 12.4418 0.667161L18.8379 5.40917C20.1113 6.35326 20.8716 7.86327 20.8716 9.44829V19.754C20.8716 20.9923 19.864 22 18.6255 22ZM10.4356 1.61826C10.0699 1.61826 9.70421 1.73394 9.3923 1.96532L2.99591 6.7076C2.13195 7.34813 1.61613 8.37262 1.61613 9.44843V19.7541C1.61613 20.1013 1.89869 20.3839 2.24589 20.3839H18.6255C18.9729 20.3839 19.2554 20.1013 19.2554 19.7541V9.44843C19.2554 8.37289 18.7396 7.34813 17.8755 6.7076L11.4791 1.96546C11.1671 1.73394 10.8013 1.61826 10.4356 1.61826Z" fill="#E9ECEF"/>
</svg>
