<svg width="20" height="22" viewBox="0 0 20 22" fill="none" xmlns="http://www.w3.org/2000/svg">
<path d="M19.9939 20.0526L19.6058 15.4363C19.3493 12.3879 16.6746 10.0004 13.5161 10.0004H12.3415C13.7905 9.20662 14.7719 7.70165 14.7719 5.97742V4.61942C14.7719 2.07237 12.6313 0 10.0004 0C7.36951 0 5.22892 2.07237 5.22892 4.61942V5.97742C5.22892 7.70086 6.20952 9.20662 7.65931 10.0004H6.4847C3.32618 10.0004 0.650647 12.3879 0.394946 15.4363L0.00611689 20.0526C-0.0360942 20.5524 0.141679 21.0507 0.492356 21.4192C0.843844 21.7878 1.34226 22 1.86016 22H6.48308C6.8922 22 7.2234 21.6794 7.2234 21.2833C7.2234 20.8872 6.8922 20.5666 6.48308 20.5666H1.86016C1.71566 20.5666 1.62312 20.4919 1.58091 20.4479C1.5387 20.4039 1.4697 20.3088 1.48188 20.1689L1.8699 15.5526C2.06391 13.2429 4.09085 11.4338 6.48389 11.4338H13.5161C15.9091 11.4338 17.9361 13.2429 18.1301 15.5526L18.5181 20.1689C18.5303 20.3088 18.4605 20.4039 18.4191 20.4479C18.3769 20.4919 18.2843 20.5666 18.1398 20.5666H13.5161C13.107 20.5666 12.7758 20.8872 12.7758 21.2833C12.7758 21.6794 13.107 22 13.5161 22H18.1398C18.6577 22 19.1561 21.7886 19.5076 21.42C19.8591 21.0514 20.0361 20.5524 19.9939 20.0526ZM6.70875 4.61942C6.70875 2.86297 8.18532 1.43345 9.99958 1.43345C11.8138 1.43345 13.2904 2.86297 13.2904 4.61942V5.97742C13.2904 7.73387 11.8138 9.16339 9.99958 9.16339C8.18532 9.16339 6.70875 7.73387 6.70875 5.97742V4.61942Z" fill="#E9ECEF"/>
</svg>
