<svg width="201" height="188" viewBox="0 0 201 188" fill="none" xmlns="http://www.w3.org/2000/svg">
<path fill-rule="evenodd" clip-rule="evenodd" d="M90.3083 7.07322C95.3072 7.07754 100.215 7.4931 104.998 8.28958C106.312 8.50602 107.655 8.26361 108.813 7.60565C130.995 -5.05148 159.753 -1.91317 178.668 17.0379C196.102 34.5085 200.128 60.3552 190.757 81.7C189.794 83.8904 190.273 86.4486 191.962 88.1412L195.929 92.1149C202.69 98.8893 202.69 109.893 195.929 116.672C192.157 120.451 187.072 122.117 182.137 121.684C179.454 121.446 176.961 123.095 176.123 125.658C164.289 161.816 130.286 188 90.291 188C40.5096 188 0 147.423 0 97.5388C0 47.6591 40.5096 7.07322 90.291 7.07322H90.3083Z" fill="#43454D"/>
<path d="M88.5466 171.018C128.992 171.018 161.78 138.168 161.78 97.6461C161.78 57.1242 128.992 24.2747 88.5466 24.2747C48.1009 24.2747 15.3131 57.1242 15.3131 97.6461C15.3131 138.168 48.1009 171.018 88.5466 171.018Z" fill="#EB5A3E"/>
<path fill-rule="evenodd" clip-rule="evenodd" d="M25.6439 128.692L39.7273 147.505C39.7273 147.505 37.1782 113.655 61.3218 88.2435C85.4654 62.8325 97.9386 65.6676 97.9386 65.6676C97.9386 65.6676 96.841 46.8083 102.633 39.3291C108.425 31.8499 111.083 26.1599 111.083 26.1599C111.083 26.1599 62.2391 16.3412 37.8495 45.9137C13.46 75.4862 14.6739 104.244 18.1328 113.641C21.5917 123.039 25.6439 128.692 25.6439 128.692Z" fill="white" fill-opacity="0.25"/>
<path d="M136.903 96.7094C158.422 96.7094 175.867 79.2317 175.867 57.672C175.867 36.1122 158.422 18.6345 136.903 18.6345C115.383 18.6345 97.9386 36.1122 97.9386 57.672C97.9386 79.2317 115.383 96.7094 136.903 96.7094Z" fill="white" fill-opacity="0.56"/>
<path d="M136.901 54.3771C143.382 54.3771 148.637 49.1127 148.637 42.6188C148.637 36.1249 143.382 30.8606 136.901 30.8606C130.419 30.8606 125.164 36.1249 125.164 42.6188C125.164 49.1127 130.419 54.3771 136.901 54.3771Z" fill="white"/>
<path fill-rule="evenodd" clip-rule="evenodd" d="M168.83 97.422C168.83 97.461 168.83 97.5 168.83 97.5389C168.83 140.925 133.596 176.222 90.2913 176.222C46.9907 176.222 11.7565 140.925 11.7565 97.5389C11.7565 54.1523 46.9907 18.8518 90.2913 18.8518C96.9104 18.8604 103.344 19.6915 109.492 21.2542C127.656 7.36771 153.756 8.73557 170.356 25.3664C187.111 42.1575 188.346 68.6448 174.058 86.8643L187.612 100.443C189.79 102.621 189.79 106.162 187.612 108.339C185.439 110.521 181.904 110.521 179.731 108.343L168.83 97.422ZM101.153 29.4701C97.5067 28.8814 93.8126 28.5827 90.1488 28.5827C89.047 28.5827 87.9453 28.6087 86.8565 28.6606C85.8455 29.8164 82.0434 34.7035 81.1404 43.7591C80.4491 50.685 82.4063 57.4724 82.6051 62.0609C82.7995 66.5627 81.4731 69.7443 78.9844 71.584C76.9019 73.1207 73.2943 74.099 67.2239 72.5623C64.9124 71.9779 63.1885 71.8957 61.8275 72.2896C59.8789 72.848 58.8506 74.3284 57.8137 75.5231C56.9885 76.4754 56.1892 77.3715 55.351 78.1203C52.5988 80.5704 49.475 81.9296 44.5496 80.2674C40.6006 78.9385 37.4984 74.9128 35.8307 69.3677C34.7722 65.8571 34.2148 61.7276 33.9253 57.9399C28.3388 65.961 24.3898 75.2851 22.6011 85.4705L22.437 86.4141L52.9704 117.001C54.556 118.594 56.7552 119.507 58.9975 119.507H76.8976C86.9645 119.507 95.1563 127.71 95.1563 137.8V166.331L97.174 166.127C112.927 164.547 127.759 157.487 138.937 146.25L140.233 144.951L129.98 134.679C127.18 131.857 125.629 128.104 125.616 124.121V117.667C125.616 112.953 121.788 109.118 117.083 109.118H96.9925C86.9256 109.118 78.7338 100.915 78.7338 90.8294V87.4704C78.7338 79.2934 85.3313 72.6272 93.4756 72.5363C88.8267 58.1217 91.3888 41.8675 101.153 29.4701ZM86.1695 28.6952C85.8671 28.7125 85.5647 28.7342 85.2622 28.7558C84.8993 28.9679 84.5061 29.1757 84.0827 29.3792L86.1695 28.6952ZM73.7868 30.5522C62.5231 33.3139 52.292 38.8677 43.9317 46.5165C43.9317 46.6377 43.9317 46.7589 43.9231 46.8801C43.9231 46.8801 43.4392 55.5418 44.8261 63.0695C45.2236 65.2425 45.768 67.3202 46.5975 68.9651C46.9518 69.6621 47.2067 70.3633 47.8073 70.5624C48.3949 70.7616 48.6757 70.3806 48.9911 70.0473C49.6738 69.3374 50.3348 68.5193 51.0693 67.7098C52.858 65.7403 54.9924 63.8832 57.9736 62.7881C60.8338 61.7362 64.5538 61.325 69.7255 62.6323C70.6328 62.866 71.6525 62.9872 72.3783 63.0478C72.3869 62.6799 72.3869 62.273 72.361 61.931C72.2357 60.2861 71.9333 58.3858 71.6395 56.3253C71.0433 52.1914 70.4989 47.4948 70.9741 42.7419C71.471 37.7249 72.5295 33.7165 73.7868 30.5522ZM97.6017 81.7435C96.3401 82.0941 95.0137 82.2802 93.6441 82.2802C90.7839 82.2802 88.4594 84.6091 88.4594 87.4704V90.8294C88.4594 95.5391 92.2874 99.3743 96.9925 99.3743H116.094C112.028 97.2446 108.209 94.4699 104.795 91.0502C101.953 88.1976 99.5546 85.0679 97.6017 81.7435ZM129.038 103.854C132.896 107.209 135.342 112.157 135.342 117.667V124.126C135.342 125.507 135.878 126.81 136.854 127.788L146.424 137.385L147.664 135.515C154.819 124.736 158.746 112.274 159.083 99.3613C149.772 104.244 139.153 105.742 129.038 103.854ZM162.527 83.094C176.21 69.3244 176.193 47.0143 162.471 33.2663C148.731 19.5011 126.42 19.5011 112.68 33.2663C98.9368 47.0316 98.9368 69.385 112.68 83.1503C126.403 96.8983 148.671 96.9156 162.414 83.2066L162.471 83.1503L162.527 83.094ZM21.8191 104.179C25.012 136.748 50.9138 162.803 83.413 166.127L85.4307 166.335V137.8C85.4307 133.086 81.6027 129.251 76.8976 129.251H59.0062C54.1585 129.251 49.475 127.299 46.0963 123.892L21.3179 99.0669L21.8191 104.179Z" fill="#1E1E20"/>
</svg>
