<svg width="70" height="70" viewBox="0 0 70 70" fill="none" xmlns="http://www.w3.org/2000/svg">
<path d="M69.5547 29.2052L66.0364 35.3416C65.2258 36.7543 63.536 37.3633 62.0198 36.7921L59.8582 35.9773C59.14 35.7056 58.3476 35.7728 57.6839 36.1579C57.0203 36.5429 56.5667 37.2009 56.4407 37.9625L56.0613 40.2544C55.7953 41.8631 54.4247 43.0307 52.8049 43.0307H45.767C44.1458 43.0307 42.7766 41.8631 42.5106 40.253L42.1312 37.9611C42.0052 37.1995 41.5516 36.5415 40.888 36.1565C40.2244 35.7714 39.432 35.7042 38.7137 35.9759L36.5521 36.7907C36.2259 36.9139 35.8927 36.9629 35.5609 36.9797C36.4471 35.7714 37.1303 34.4064 37.5335 32.9209L37.5713 32.9069C38.2349 32.6577 38.9251 32.5331 39.614 32.5331C40.6206 32.5331 41.6202 32.7977 42.5162 33.3185C44.0254 34.1964 45.0558 35.6916 45.3428 37.4235L45.7222 39.7154C45.7264 39.7378 45.7446 39.7532 45.767 39.7532H52.8049C52.8273 39.7532 52.8469 39.7364 52.8497 39.7154L53.2291 37.4235C53.5161 35.693 54.5465 34.1964 56.0557 33.3185C57.5649 32.4407 59.3682 32.2909 61.0006 32.9069L63.1622 33.7217C63.1832 33.7301 63.207 33.7218 63.2182 33.7022L66.7364 27.5671C66.7476 27.5475 66.7434 27.5237 66.7266 27.5097L64.9444 26.0326C63.599 24.9168 62.8262 23.2717 62.8262 21.5161C62.8262 19.7604 63.5976 18.1153 64.9444 16.9995L66.7266 15.5224C66.7434 15.5084 66.7476 15.4832 66.7364 15.4636L63.2182 9.32856C63.207 9.30896 63.1832 9.30059 63.1622 9.30899L61.0006 10.1238C59.3682 10.7399 57.5649 10.5886 56.0557 9.7122C54.5465 8.83437 53.5161 7.3391 53.2291 5.60723L52.8497 3.31535C52.8455 3.29295 52.8273 3.27754 52.8049 3.27754H45.767C45.7446 3.27754 45.7264 3.29295 45.7222 3.31535L45.3428 5.60723C45.0558 7.3377 44.0268 8.83436 42.5162 9.71079C41.0056 10.5886 39.2037 10.7385 37.5713 10.1238L35.4097 9.30899C35.3887 9.30059 35.3663 9.30896 35.3551 9.32856L33.3069 12.8987C32.4585 12.2197 31.5233 11.6471 30.5153 11.2116L32.5355 7.68911C33.3447 6.27646 35.0345 5.66742 36.5521 6.23864L38.7137 7.05347C39.432 7.32508 40.2244 7.25788 40.888 6.87287C41.5516 6.48645 42.0052 5.82982 42.1312 5.06819L42.5106 2.77631C42.7766 1.16765 44.1458 0 45.767 0H52.8049C54.4247 0 55.7939 1.16765 56.0613 2.77631L56.4407 5.06819C56.5667 5.82982 57.0203 6.48785 57.6839 6.87287C58.3476 7.25788 59.14 7.32508 59.8582 7.05347L62.0198 6.23864C63.536 5.66742 65.2258 6.27646 66.0364 7.68911L69.5547 13.8241C70.3653 15.2368 70.0447 17.0149 68.7931 18.0509L67.0108 19.528C66.4186 20.018 66.0798 20.7432 66.0798 21.5147C66.0798 22.2861 66.4186 23.0099 67.0108 23.5013L68.7931 24.9784C70.0447 26.0144 70.3639 27.7925 69.5547 29.2052ZM41.0756 21.5147C41.0756 16.9575 44.759 13.2502 49.2853 13.2502C53.8115 13.2502 57.4949 16.9575 57.4949 21.5147C57.4949 26.0718 53.8115 29.7792 49.2853 29.7792C44.759 29.7792 41.0756 26.0718 41.0756 21.5147ZM44.332 21.5147C44.332 24.2644 46.5538 26.5017 49.2853 26.5017C52.0167 26.5017 54.2399 24.2644 54.2399 21.5147C54.2399 18.765 52.0181 16.5276 49.2853 16.5276C46.5524 16.5276 44.332 18.765 44.332 21.5147Z" fill="#EB5B3E"/>
<path d="M51.3473 64.6069L50.4163 54.9886C49.7569 46.8291 42.8702 40.4364 34.7376 40.4364H31.7135C35.4446 38.3111 37.9702 34.2818 37.9702 29.6672V22.5787C37.9702 15.759 32.4597 10.212 25.6851 10.212C19.6118 10.212 14.5577 14.6726 13.5749 20.5094C13.4615 20.8804 13.3999 21.271 13.3999 21.6715V29.6672C13.3999 34.2818 15.9256 38.3111 19.6566 40.4364H16.6326C8.49988 40.4364 1.61321 46.829 0.956599 54.9578L0.0227888 64.6056C-0.110213 65.9832 0.343392 67.3623 1.2674 68.3871C2.19141 69.412 3.51023 70 4.88504 70H16.6326C17.6854 70 18.538 69.1404 18.538 68.0805C18.538 67.0207 17.684 66.161 16.6326 66.161H4.88504C4.47064 66.161 4.20883 65.9384 4.08983 65.8068C3.97083 65.6752 3.77623 65.391 3.81683 64.9766L4.75344 55.298C5.25324 49.1154 10.4711 44.2726 16.6326 44.2726H17.9164L22.199 49.4934L22.3208 49.6278C23.256 50.57 24.4866 51.0418 25.7145 51.0418C26.9423 51.0418 28.1729 50.57 29.1095 49.6278L33.5139 44.2726H34.7376C40.899 44.2726 46.1183 49.1154 46.6195 55.3288L47.5533 64.9766C47.5939 65.391 47.3993 65.6752 47.2803 65.8068C47.1613 65.9384 46.8995 66.161 46.4851 66.161H34.7376C33.6847 66.161 32.8321 67.0207 32.8321 68.0805C32.8321 69.1404 33.6861 70 34.7376 70H46.4851C47.8599 70 49.1787 69.412 50.1027 68.3871C51.0267 67.3623 51.4803 65.9846 51.3473 64.6069ZM25.6851 14.0496C30.3247 14.0496 34.1033 17.8241 34.1551 22.4821L31.5063 22.7005C28.1155 22.9805 24.7008 22.0579 21.9022 20.1006L19.5334 18.4429C19.2324 18.2315 18.9076 18.0677 18.5716 17.9515C20.0822 15.605 22.7072 14.0496 25.6851 14.0496ZM17.2122 26.5646V22.5801C17.2122 22.2441 17.2332 21.9123 17.271 21.586C17.285 21.579 17.299 21.5749 17.3088 21.5749C17.3284 21.5749 17.3424 21.5847 17.3578 21.5945L19.7266 23.2521C23.249 25.7162 27.5415 26.8797 31.8171 26.5255L34.1565 26.3323V29.6686C34.1565 34.3714 30.3555 38.1977 25.6837 38.1977C21.0118 38.1977 17.2108 34.3714 17.2108 29.6686V26.5646H17.2122ZM26.3655 46.9635C25.9945 47.2897 25.4373 47.2911 25.0649 46.9635L22.8598 44.2753H28.5705L26.3655 46.9635Z" fill="#252528"/>
</svg>
