<svg width="70" height="70" viewBox="0 0 70 70" fill="none" xmlns="http://www.w3.org/2000/svg">
<path d="M67.9113 8.54443L54.0717 0.557466C52.802 -0.176132 51.2285 -0.185932 49.9504 0.529465L45.2845 2.81986L45.1949 2.86745C43.9083 3.60945 43.1104 4.99265 43.1104 6.47664V22.4506C43.1104 23.936 43.9097 25.3192 45.1949 26.0598L47.3213 27.2862V35.6805L45.9522 34.8909V38.4119L56.46 44.4753C56.6 44.5943 56.7596 44.6867 56.9346 44.7497L61.0643 47.1325L39.927 60.2252C39.3642 60.543 38.6684 60.5388 38.1071 60.2154L33.528 57.5722L30.4775 59.3334L36.5826 62.8572C36.8766 63.0266 37.1845 63.1624 37.5023 63.266V66.2704L19.5078 55.8867C19.4112 55.8307 19.3244 55.7635 19.2474 55.6879L15.8148 53.7069V54.7765C15.8148 56.3192 16.645 57.7556 17.9819 58.527L36.8612 69.4218C37.5289 69.8068 38.2779 70 39.0282 70C39.7786 70 40.5261 69.8068 41.1953 69.4218L63.1838 55.7691C64.5067 54.9949 65.327 53.5655 65.327 52.0325V48.5717C65.327 47.0891 64.5585 45.7045 63.3112 44.9149C63.7059 44.2695 63.9285 43.5191 63.9285 42.7407V33.6995L67.8245 31.7871L67.9155 31.7395C69.202 30.9975 70 29.6143 70 28.1304V12.1564C70 10.6724 69.2006 9.28783 67.9155 8.54723L67.9113 8.54443ZM55.9154 40.6421L50.3717 37.4431V29.0502L55.9154 32.2491V40.6421ZM46.7194 23.4194C46.375 23.2206 46.1608 22.8496 46.1608 22.4506V7.59244L59.0792 15.0474C59.2458 15.144 59.418 15.2252 59.5944 15.2966V30.8505L46.7194 23.4194ZM60.8739 42.7393C60.8739 42.9731 60.7983 43.1971 60.6667 43.3833L58.9658 42.4019V34.0089L59.0344 34.0481C59.6042 34.3771 60.2356 34.5591 60.8739 34.5969V42.7393ZM60.6037 12.407L47.7665 4.99965L51.3349 3.24826L51.4259 3.20066C51.7703 3.00046 52.2 3.00046 52.5444 3.20066L65.3046 10.5646L61.7125 12.3664L61.6341 12.4084C61.3149 12.5918 60.9201 12.5918 60.6023 12.4084L60.6037 12.407ZM62.271 52.0325C62.271 52.4889 62.026 52.9145 61.6299 53.1427L40.5499 66.2312V63.2674C40.8663 63.1638 41.1743 63.028 41.4697 62.8586L62.2724 49.9745V52.0339L62.271 52.0325ZM66.9454 28.1276C66.9454 28.5126 66.7452 28.8724 66.4204 29.0754L62.6448 30.9289V15.298C62.8058 15.2336 62.964 15.158 63.118 15.0726L66.9454 13.1518V28.1276Z" fill="#252528"/>
<path d="M57.1823 16.9038L48.7674 12.162C48.5574 12.0388 48.2928 12.1886 48.2928 12.4322V15.1006C48.2928 15.3008 48.3992 15.487 48.5714 15.5878L56.9457 20.3058C57.2481 20.485 57.6317 20.2666 57.6317 19.9152V17.6906C57.6317 17.3672 57.4609 17.0676 57.1823 16.9038Z" fill="#252528"/>
<path d="M43.9083 28.5307L30.0618 20.5396C28.8033 19.813 27.2381 19.813 25.9782 20.5396L12.1317 28.5307C10.8731 29.2573 10.0906 30.6125 10.0906 32.0657V48.0481C10.0906 49.5013 10.8731 50.8565 12.1317 51.5831L25.9782 59.5742C26.6082 59.9382 27.3137 60.1188 28.0193 60.1188C28.7249 60.1188 29.4318 59.9368 30.0618 59.5742L43.9083 51.5831C45.1683 50.8565 45.9508 49.5027 45.9508 48.0481V32.0657C45.9508 30.6125 45.1683 29.2573 43.9097 28.5307H43.9083ZM27.4159 23.0288C27.6021 22.921 27.8107 22.8678 28.0193 22.8678C28.2279 22.8678 28.4379 22.921 28.6241 23.0288L41.6377 30.5383L36.1892 33.6827C35.9988 33.5133 35.7902 33.3621 35.5648 33.2333L22.6478 25.7798L27.4159 23.0288ZM28.5807 38.0731C28.2349 38.2733 27.8065 38.2719 27.4607 38.0731L14.4023 30.5383L19.7738 27.4388L33.3922 35.2969L28.5807 38.0731ZM13.568 49.0925C13.1956 48.8769 12.9646 48.4765 12.9646 48.0467V33.0261L26.0216 40.5609C26.2022 40.6659 26.3898 40.7527 26.5816 40.8255V56.6006L13.568 49.0911V49.0925ZM42.472 49.0925L29.4584 56.6034V40.8269C29.6502 40.7527 29.8378 40.6659 30.0184 40.5623L34.6185 37.9079L34.6227 42.8807C34.6227 43.1369 34.9041 43.2951 35.1239 43.1621L37.081 41.9721C37.3161 41.8293 37.4603 41.5745 37.4617 41.2987C37.4673 40.0093 37.4855 36.3399 37.4785 36.2573L43.0768 33.0261V48.0467C43.0768 48.4765 42.8458 48.8783 42.472 49.0925Z" fill="#EB5B3E"/>
<path d="M38.7343 19.3579V20.6123C38.7343 20.8265 38.5607 21.0001 38.3465 21.0001H35.8379C35.6237 21.0001 35.4501 20.8265 35.4501 20.6123V19.3579C35.4501 13.6935 32.555 8.55415 27.7043 5.60856C25.1999 4.08676 22.3161 3.28317 19.3678 3.28317C10.5008 3.28317 3.287 10.4945 3.287 19.3565C3.287 25.2561 6.51241 30.6727 11.7047 33.4909L12.8078 34.09C12.9968 34.1922 13.0654 34.4274 12.9632 34.6164L11.7649 36.82C11.6627 37.009 11.4261 37.0776 11.2385 36.9754L10.1354 36.3762C3.88337 32.9855 0 26.4629 0 19.3579C0 8.68294 8.68788 0.000183105 19.3664 0.000183105C22.9166 0.000183105 26.3884 0.968978 29.408 2.80297C35.2471 6.34916 38.7329 12.5371 38.7329 19.3593L38.7343 19.3579ZM25.3889 14.5825L20.4122 17.0017L12.3627 10.4161C11.6459 9.82954 10.596 9.89955 9.9632 10.5757C9.33184 11.2505 9.33044 12.2963 9.959 12.9725L18.0015 21.6259C18.2227 21.8639 18.5279 21.9577 18.8275 21.9339C18.9885 21.9437 19.1537 21.9185 19.2992 21.8205L26.7048 16.8743C27.2858 16.4865 27.4664 15.7137 27.1164 15.1089C26.7678 14.5055 26.0132 14.2745 25.3875 14.5783L25.3889 14.5825Z" fill="#EB5B3E"/>
</svg>
