<svg width="70" height="70" viewBox="0 0 70 70" fill="none" xmlns="http://www.w3.org/2000/svg">
<path d="M52.6417 33.6714V49.5712C52.6417 55.8138 47.5066 60.893 41.1942 60.893H28.173V66.3376H37.6018C38.6238 66.3376 39.454 67.158 39.454 68.1688C39.454 69.1796 38.6252 70 37.6018 70H15.0399C14.0179 70 13.1877 69.1796 13.1877 68.1688C13.1877 67.158 14.0165 66.3376 15.0399 66.3376H24.4687V60.893H11.4476C5.1351 60.893 0 55.8138 0 49.5712V29.1074C0 22.8634 5.1351 17.7842 11.4476 17.7842H29.265V21.4466H11.4476C7.17626 21.4466 3.70153 24.8836 3.70153 29.106V49.5698C3.70153 53.7936 7.17626 57.2292 11.4476 57.2292H41.1942C45.4655 57.2292 48.9388 53.7936 48.9388 49.5698V33.67H52.6417V33.6714ZM27.8482 51.6978C28.2864 51.6978 28.7246 51.5326 29.0578 51.2022C29.7256 50.5414 29.7256 49.4704 29.0578 48.8096L16.6933 36.582C16.0255 35.9212 14.9419 35.9212 14.2741 36.582C13.6063 37.2428 13.6063 38.3138 14.2741 38.9746L26.6387 51.2022C26.9719 51.5326 27.4101 51.6978 27.8482 51.6978ZM8.91642 41.8796C8.24863 42.5404 8.24863 43.6114 8.91642 44.2722L15.0987 50.386C15.4319 50.7164 15.8701 50.8816 16.3083 50.8816C16.7465 50.8816 17.1833 50.7164 17.5178 50.386C18.1856 49.7252 18.1856 48.6542 17.5178 47.9934L11.3356 41.8796C10.6678 41.2188 9.58421 41.2188 8.91642 41.8796Z" fill="#252528"/>
<path d="M61.708 0H40.4984C33.3502 0 27.5333 5.7512 27.5333 12.8212V38.7156C27.5333 39.312 27.8637 39.8566 28.3956 40.138C28.6378 40.2654 28.901 40.3298 29.1656 40.3298C29.482 40.3298 29.7984 40.2388 30.0728 40.0582L37.7475 34.9832C38.2879 34.6262 38.915 34.4372 39.5646 34.4372H57.0349C64.1831 34.4372 70 28.686 70 21.616V8.1998C70 3.6792 66.2789 0 61.708 0ZM66.8305 21.616C66.8305 26.9584 62.436 31.3054 57.0335 31.3054H39.5632C38.2851 31.3054 37.0475 31.6764 35.9849 32.3792L30.7 35.8736V12.8212C30.7 7.4788 35.0945 3.1318 40.497 3.1318H61.7066C64.5317 3.1318 66.8305 5.4054 66.8305 8.1984V21.616ZM41.848 17.7842C41.848 19.1548 40.7252 20.2664 39.3392 20.2664C37.9533 20.2664 36.8305 19.1548 36.8305 17.7842C36.8305 16.4136 37.9533 15.302 39.3392 15.302C40.7252 15.302 41.848 16.4136 41.848 17.7842ZM51.3594 17.7842C51.3594 19.1548 50.2366 20.2664 48.8506 20.2664C47.4647 20.2664 46.3419 19.1548 46.3419 17.7842C46.3419 16.4136 47.4647 15.302 48.8506 15.302C50.2366 15.302 51.3594 16.4136 51.3594 17.7842ZM60.8652 17.7842C60.8652 19.1548 59.7424 20.2664 58.3564 20.2664C56.9705 20.2664 55.8477 19.1548 55.8477 17.7842C55.8477 16.4136 56.9705 15.302 58.3564 15.302C59.7424 15.302 60.8652 16.4136 60.8652 17.7842Z" fill="#EB5B3E"/>
</svg>
