<svg width="70" height="70" viewBox="0 0 70 70" fill="none" xmlns="http://www.w3.org/2000/svg">
<path d="M60.5734 70C59.8958 70 59.3456 69.4568 59.3456 68.7876V62.8263H53.3295C52.6533 62.8263 52.1031 62.2831 52.1031 61.6139V60.6675C52.1031 59.9997 52.6533 59.4551 53.3295 59.4551H59.3456V53.4938C59.3456 52.826 59.8958 52.2814 60.5734 52.2814H61.5283C62.2045 52.2814 62.7547 52.8246 62.7547 53.4938V59.4551H68.7736C69.4498 59.4551 70 59.9983 70 60.6675V61.6139C70 62.2817 69.4498 62.8263 68.7736 62.8263H62.7547V68.7876C62.7547 69.4554 62.2045 70 61.5283 70H60.5734Z" fill="#252528"/>
<path d="M69.3378 15.1293C69.293 14.9402 69.2202 14.7554 69.118 14.5776C69.0144 14.4012 68.8884 14.2458 68.7456 14.1142C68.3298 13.5584 67.802 13.0824 67.1803 12.7282L46.1151 0.686707C44.5134 -0.228902 42.5407 -0.228902 40.9391 0.686707L19.8752 12.7282C19.2536 13.0838 18.7244 13.5598 18.3099 14.1142C18.1671 14.2472 18.0411 14.4012 17.9375 14.579C17.8339 14.7554 17.7625 14.9416 17.7177 15.1307C17.4391 15.7649 17.2879 16.4551 17.2879 17.1663V41.2479C17.2879 43.0791 18.2749 44.7703 19.8766 45.6859L40.9419 57.7275C40.9685 57.7429 41.0105 57.7639 41.0609 57.7891C42.6107 58.5549 44.4476 58.5549 45.9961 57.7891C46.0479 57.7639 46.0885 57.7415 46.1165 57.7261L67.1817 45.6846C68.7834 44.7689 69.769 43.0777 69.769 41.2465V17.1649C69.769 16.4537 69.615 15.7635 69.3378 15.1293ZM42.9817 4.18814C43.1498 4.09154 43.3388 4.04394 43.5264 4.04394C43.714 4.04394 43.903 4.09294 44.0724 4.18814L63.6396 15.3728L55.5025 20.0251C55.2168 19.7703 54.9032 19.5421 54.563 19.3475L35.5124 8.45819L42.9817 4.18814ZM41.4851 53.3664L21.9179 42.1817C21.5819 41.9899 21.3719 41.6315 21.3719 41.2465V18.8757L40.6297 29.884C40.9055 30.0408 41.1925 30.171 41.4851 30.2802V53.3664ZM42.6723 26.3812L23.4145 15.3728L31.4285 10.792L51.5417 22.2889L44.3832 26.3812C43.8554 26.6822 43.2002 26.6836 42.6723 26.3812ZM65.6823 41.2465C65.6823 41.6329 65.4737 41.9885 65.1362 42.1817L45.5691 53.3664V30.2802C45.8617 30.171 46.1487 30.0408 46.4245 29.884L53.2722 25.9696L53.2792 33.3308C53.2792 33.6738 53.6642 33.881 53.9554 33.6948L56.8913 31.809C57.1867 31.6186 57.3645 31.2938 57.3645 30.9452L57.3561 24.1299C57.3561 23.9689 57.3463 23.8093 57.3323 23.6497L65.6837 18.8771V41.2479L65.6823 41.2465ZM13.694 17.9895C13.694 19.0843 12.8035 19.9719 11.7073 19.9719H1.98668C0.889036 19.9719 0 19.0843 0 17.9895C0 16.8947 0.890436 16.0071 1.98668 16.0071H11.7073C12.8049 16.0071 13.694 16.8947 13.694 17.9895ZM13.694 26.58C13.694 27.6748 12.8035 28.5624 11.7073 28.5624H1.98668C0.889036 28.5624 0 27.6748 0 26.58C0 25.4851 0.890436 24.5975 1.98668 24.5975H11.7073C12.8049 24.5975 13.694 25.4851 13.694 26.58ZM13.694 35.1018C13.694 36.1967 12.8035 37.0843 11.7073 37.0843H1.98668C0.889036 37.0843 0 36.1967 0 35.1018C0 34.007 0.890436 33.1194 1.98668 33.1194H11.7073C12.8049 33.1194 13.694 34.007 13.694 35.1018Z" fill="#EB5B3E"/>
</svg>
