<svg width="70" height="70" viewBox="0 0 70 70" fill="none" xmlns="http://www.w3.org/2000/svg">
<path d="M36.9849 21.1568L45.9297 26.3018L44.4303 31.4048C44.5199 31.3978 44.6067 31.3796 44.6977 31.3796C45.7211 31.3796 46.6633 31.7926 47.3522 32.4842L51.9121 16.9624L59.7901 9.1126C60.3977 8.5078 60.3977 7.52778 59.7901 6.92298C59.1839 6.31818 58.1983 6.31818 57.592 6.92298L50.2754 14.2128L41.815 9.34639L48.5422 2.64319C49.1498 2.03839 49.1498 1.0584 48.5422 0.4536C47.936 -0.1512 46.9503 -0.1512 46.3441 0.4536L37.9299 8.83679L37.8095 9.1882C37.8095 9.1882 37.8095 9.1896 37.8095 9.191L32.1841 25.5682L34.9268 27.146L36.9849 21.1568ZM40.1433 11.9588L48.6962 16.8798L46.8271 23.2428L38.0097 18.1706L40.1433 11.9588ZM48.0956 60.7054L45.8611 59.451C45.2535 60.074 44.5115 60.6704 43.7415 61.1142L40.7762 62.8208C39.8969 63.3262 38.8483 63.3262 37.9691 62.8208C37.0899 62.3154 36.5648 61.4096 36.5648 60.3988V56.7406C36.5648 53.2392 38.4773 50.015 41.5546 48.3252L44.4009 46.7628C44.7061 46.6116 44.9861 46.5066 45.2773 46.4436L42.2168 38.9382L40.2946 45.4818L40.0537 45.6134L40.0971 45.5896V32.662C40.0971 31.0898 39.2557 29.638 37.8893 28.8526L22.255 19.859C20.8886 19.0736 19.2071 19.0736 17.8407 19.859L2.20786 28.8526C0.841424 29.638 0 31.0912 0 32.662V50.6492C0 52.2214 0.841424 53.6732 2.20786 54.4586L17.8407 63.4522C18.5211 63.8442 19.2856 64.0402 20.0486 64.0402C20.8116 64.0402 21.576 63.8442 22.2564 63.4522L33.4554 57.0094V59.7338L21.9526 66.738C21.5536 66.9606 21.0622 66.9592 20.6646 66.731L6.18678 58.4024L7.55602 57.5358L4.51933 55.7886L3.94811 56.1512C3.14449 56.6594 2.67688 57.5288 2.69788 58.4766C2.71888 59.4244 3.22289 60.2728 4.04612 60.7474L19.1105 69.4134C19.791 69.804 20.5526 70 21.3156 70C22.0786 70 22.8403 69.804 23.5207 69.4134L34.0532 63C34.5586 64.029 35.3664 64.9012 36.4136 65.5046C37.3391 66.0366 38.3555 66.304 39.3719 66.304C40.3884 66.304 41.4034 66.038 42.3302 65.5046L45.2955 63.798C46.5639 63.0686 47.719 62.0788 48.6416 60.9924C48.4596 60.8972 48.2748 60.8076 48.0956 60.7068V60.7054ZM19.3962 22.5386C19.5978 22.4224 19.8232 22.365 20.05 22.365C20.2768 22.365 20.5022 22.4224 20.7038 22.5386L35.4364 31.0142L29.202 34.601C28.9822 34.4036 28.7428 34.2272 28.4824 34.0774L13.9122 25.6956L19.3976 22.54L19.3962 22.5386ZM18.4959 60.2504L3.76331 51.7748C3.3601 51.5424 3.10949 51.1112 3.10949 50.6478V33.6966L17.8393 42.1694C18.0507 42.2912 18.2705 42.392 18.4959 42.476V60.2504ZM19.3934 39.487L4.66493 31.0142L10.8041 27.482L26.1905 36.3328L20.7094 39.4856C20.3034 39.7194 19.7994 39.7194 19.3948 39.4856L19.3934 39.487ZM33.9902 53.1244L21.604 60.249V42.4746C21.8294 42.3906 22.0492 42.2898 22.2606 42.168L27.5052 39.151L27.5094 44.1154C27.5094 44.6138 28.0512 44.926 28.4852 44.6768L30.1639 43.715C30.4453 43.554 30.6175 43.2558 30.6175 42.9324L30.6105 37.7482C30.6105 37.6222 30.6021 37.499 30.5909 37.3744L36.9877 33.6938V47.9682C35.5932 49.4242 34.5628 51.191 33.9874 53.123L33.9902 53.1244Z" fill="#EB5B3E"/>
<path d="M58.4405 63.616C54.8242 63.4816 51.2471 62.4736 48.0956 60.7054L41.4132 56.9548C40.1546 56.2506 39.6772 54.691 40.3226 53.4044C40.7902 52.4734 41.5812 51.744 42.55 51.3534C43.3663 51.023 44.2273 50.855 45.1093 50.855C45.5433 50.855 45.9773 50.8956 46.4044 50.9782L47.1898 51.1294L41.2312 36.519C40.4528 34.6122 41.3768 32.431 43.2907 31.6554C43.7415 31.472 44.2147 31.3796 44.6949 31.3796C46.2294 31.3796 47.5944 32.2938 48.1712 33.7078L49.9577 38.0898L50.3903 37.8406C50.5331 37.758 50.6843 37.6838 50.8411 37.6222C51.2933 37.4388 51.7665 37.3464 52.2481 37.3464C52.9523 37.3464 53.6426 37.5452 54.2432 37.9176L54.519 38.0898L54.7612 37.8756C55.0804 37.5928 55.4416 37.3688 55.835 37.2092C56.2858 37.0272 56.7605 36.9348 57.2421 36.9348C57.7153 36.9348 58.1801 37.023 58.6225 37.1966L58.9053 37.3072L59.1069 37.079C59.4919 36.6408 59.9637 36.3076 60.5056 36.0878C60.955 35.9058 61.4282 35.8148 61.9084 35.8148C63.4442 35.8148 64.8093 36.7276 65.3861 38.143L69.1368 47.341C70.268 50.113 70.2876 53.1734 69.1942 55.9608C67.9916 59.0296 65.5387 61.502 62.4628 62.7466C61.2196 63.2506 59.9091 63.5432 58.5693 63.6146H58.4363L58.4405 63.616ZM45.1093 53.5976C44.5843 53.5976 44.0733 53.697 43.5875 53.893C43.4433 53.9504 43.3089 54.0302 43.1885 54.1296L42.6985 54.53L49.4452 58.317C52.1949 59.8584 55.3142 60.7418 58.4643 60.872C62.1268 60.6452 65.3161 58.3268 66.6349 54.964C67.4708 52.8318 67.4554 50.4924 66.5915 48.3728L62.8408 39.1748C62.6882 38.801 62.327 38.5574 61.9196 38.5574C61.7894 38.5574 61.6634 38.5826 61.5444 38.6316C61.039 38.836 60.794 39.4142 60.9984 39.9196L63.2006 45.318L60.6512 46.3526L58.1843 40.3018C58.0289 39.9238 57.6635 39.6774 57.2505 39.6774C57.1203 39.6774 56.9929 39.7026 56.8739 39.7516C56.3642 39.9588 56.115 40.5412 56.3194 41.048C56.8151 42.294 58.0457 45.3488 58.4895 46.4464L55.9358 47.4754L53.1749 40.7078C53.0223 40.334 52.6611 40.0904 52.2537 40.0904C52.1235 40.0904 51.9975 40.1156 51.8785 40.1646C51.3731 40.369 51.1281 40.9472 51.3325 41.4526L53.7798 47.4516L51.2303 48.4862L45.6245 34.741C45.4705 34.3672 45.1093 34.125 44.7019 34.125C44.5731 34.125 44.4471 34.1488 44.3295 34.1964C43.8213 34.4036 43.5763 34.9832 43.7821 35.4872L50.9111 52.9662C51.1561 53.5668 51.0091 54.2388 50.5331 54.6798C50.2405 54.95 49.8653 55.097 49.476 55.097C49.238 55.097 49.007 55.0438 48.7886 54.936L46.9014 54.0106C46.3484 53.7404 45.7295 53.5976 45.1121 53.5976H45.1093Z" fill="#252528"/>
</svg>
