<svg width="70" height="70" viewBox="0 0 70 70" fill="none" xmlns="http://www.w3.org/2000/svg">
<path d="M52.5734 34.0369C52.5678 33.9585 52.5538 33.8829 52.5314 33.8115C52.509 33.7401 52.4796 33.6701 52.4418 33.6029C52.3256 33.3285 52.1576 33.0864 51.9434 32.8862L45.6979 27.0288C45.2961 26.6508 44.7697 26.4492 44.2167 26.459C44.0221 26.4632 43.8289 26.494 43.6427 26.55L35.4694 29.0531C35.188 29.1385 34.9318 29.2813 34.7064 29.4773C34.642 29.5221 34.5846 29.5711 34.5356 29.6243C34.4838 29.6803 34.4376 29.7419 34.3984 29.8091C34.2192 30.0485 34.096 30.3144 34.0302 30.6014L32.1009 38.9605C31.9315 39.6955 32.1681 40.4724 32.717 40.9862L38.9624 46.8436C39.0478 46.9234 39.143 46.9976 39.2438 47.0648C39.3922 47.2944 39.6218 47.4568 39.8892 47.5198C39.9732 47.5394 40.06 47.5478 40.1468 47.5464C40.3331 47.5436 40.5109 47.4918 40.6691 47.3966C40.7895 47.3812 40.9057 47.3574 41.0177 47.3224L49.191 44.8193C49.9106 44.5995 50.4622 44.0059 50.6316 43.2709L52.5608 34.9105C52.6266 34.6221 52.6322 34.3281 52.5762 34.0355L52.5734 34.0369ZM44.2573 28.5743L49.6152 33.5987L47.2603 34.3197C47.2113 34.2623 47.1581 34.2077 47.1035 34.1559L41.9165 29.2911L44.2573 28.5743ZM39.5882 30.0037L44.9461 35.0281L42.7467 35.7014C42.7243 35.7084 42.7005 35.7126 42.6767 35.7126C42.6095 35.7126 42.5437 35.6888 42.4947 35.6426L37.246 30.719L39.5882 30.0023V30.0037ZM39.5098 44.4637L34.1534 39.4379L35.8082 32.2674L41.0569 37.1896C41.0919 37.2232 41.1297 37.254 41.1675 37.2862L39.5112 44.4623L39.5098 44.4637ZM48.5736 42.7936L41.5637 44.9411L43.2199 37.7635C43.2675 37.7523 43.3151 37.7398 43.3613 37.7258L45.4417 37.0888L45.0987 38.5839C45.0539 38.7799 45.1001 38.9815 45.2261 39.1383C45.3535 39.2951 45.5397 39.3833 45.7399 39.3791C45.8015 39.3791 45.8617 39.3679 45.9205 39.3497L46.6471 39.1229C46.9747 39.0207 47.2253 38.7491 47.3023 38.4145L47.7699 36.3776L50.2326 35.623L48.5764 42.795L48.5736 42.7936ZM30.3761 19.8135L30.5595 18.9819C30.7219 18.2469 31.5493 17.8815 32.1989 18.2595L39.101 22.276C39.5196 22.5196 39.7324 23.0067 39.6274 23.4813L39.444 24.3115C39.2816 25.0464 38.4542 25.4118 37.8046 25.0339L30.9025 21.0174C30.4839 20.7738 30.2711 20.288 30.3761 19.8135ZM32.4425 27.4726L29.9981 26.0502C29.5795 25.8066 29.3667 25.3194 29.4717 24.8448L29.6551 24.0133C29.8175 23.2783 30.6449 22.9129 31.2945 23.2909L33.739 24.7133C34.1576 24.9569 34.3704 25.444 34.2654 25.9186L34.082 26.7488C33.9196 27.4837 33.0922 27.8491 32.4425 27.4712V27.4726Z" fill="#EB5B3E"/>
<path d="M68.2957 10.7613L57.7214 4.63097C56.4977 3.9212 55.0137 3.72942 53.6515 4.1074L47.4788 5.81534C47.2072 5.89094 46.909 5.85313 46.6668 5.71174L37.7487 0.523548C36.7547 -0.053229 35.5661 -0.158236 34.4866 0.232349C33.4072 0.622934 32.5602 1.4671 32.1612 2.54646L32.1374 2.60945L30.4812 8.54802C29.392 8.11124 28.1824 8.12384 27.0889 8.59842C25.8359 9.1416 24.9175 10.214 24.5661 11.5383L20.3213 30.9093L2.73423 20.7135C2.01602 20.2964 1.106 20.4196 0.522196 21.0145C-0.0420117 21.5913 -0.159613 22.4663 0.221192 23.1704L13.3156 48.5935C14.1752 50.2636 15.4884 51.6411 17.111 52.5791L45.789 69.1405C46.7816 69.713 47.8904 70 48.9992 70C50.1333 70 51.2673 69.7004 52.2753 69.1026C53.8111 68.1913 54.9283 66.7409 55.4197 65.0204L69.8315 14.8002C70.3313 13.2658 69.6901 11.5747 68.2929 10.7655L68.2957 10.7613ZM18.7504 49.7148C17.6752 49.0932 16.8058 48.1804 16.236 47.0745L5.42506 26.0837L31.065 40.9484C32.283 41.6553 33.249 42.7025 33.858 43.975L43.4062 63.9522L18.7504 49.7148ZM36.8205 42.5471C36.0295 40.8924 34.8269 39.4994 33.3232 38.4789L23.2655 32.8273L27.7498 12.3601C27.8786 11.9121 28.2062 11.7105 28.3924 11.6307C28.5828 11.5481 28.9636 11.4445 29.3864 11.6741L56.6923 26.4841C57.1515 26.7333 57.3839 27.2611 57.2481 27.8043L48.4238 66.6416C48.3916 66.636 48.3608 66.6317 48.3286 66.6247L36.8205 42.5471ZM52.7821 62.2947L60.4444 28.5728C60.9372 26.5989 60.037 24.5466 58.2548 23.5792L33.4548 10.1286L35.2609 3.6524C35.3505 3.45641 35.5101 3.37242 35.6011 3.33882C35.6991 3.30242 35.8951 3.26043 36.1023 3.38223L45.0204 8.57041C46.0214 9.15139 47.238 9.30678 48.351 8.99879L54.5251 7.29088C55.0445 7.14529 55.6101 7.22088 56.0777 7.48967L66.6521 13.62C66.7053 13.6508 66.7291 13.7152 66.7095 13.7726L52.7821 62.2933V62.2947Z" fill="#252528"/>
</svg>
