<svg width="86" height="80" viewBox="0 0 86 80" fill="none" xmlns="http://www.w3.org/2000/svg">
<path fill-rule="evenodd" clip-rule="evenodd" d="M76.1083 41.6658C76.1083 41.6847 76.1083 41.7037 76.1083 41.7226C76.1083 62.8292 59.036 80 38.0531 80C17.0723 80 0 62.8292 0 41.7226C0 20.616 17.0723 3.44314 38.0531 3.44314C41.2603 3.44735 44.3775 3.85167 47.3565 4.61187C56.1575 -2.14358 68.8042 -1.47815 76.8473 6.61239C84.9658 14.7808 85.5646 27.6663 78.6414 36.5297L85.2087 43.1356C86.2638 44.1948 86.2638 45.9174 85.2087 46.9766C84.1557 48.038 82.4432 48.038 81.3902 46.9787L76.1083 41.6658ZM43.3161 8.6087C41.5492 8.32231 39.7593 8.17701 37.984 8.17701C37.4502 8.17701 36.9164 8.18965 36.3888 8.21492C35.8989 8.77717 34.0567 11.1546 33.6191 15.56C33.2842 18.9293 34.2325 22.2312 34.3288 24.4634C34.423 26.6534 33.7803 28.2012 32.5745 29.0962C31.5654 29.8437 29.8174 30.3196 26.876 29.5721C25.756 29.2878 24.9207 29.2478 24.2613 29.4394C23.3171 29.7111 22.8189 30.4312 22.3165 31.0125C21.9166 31.4757 21.5293 31.9116 21.1232 32.2759C19.7896 33.4678 18.276 34.1291 15.8895 33.3204C13.976 32.6739 12.4729 30.7155 11.6648 28.018C11.1519 26.3102 10.8819 24.3012 10.7416 22.4586C8.03476 26.3607 6.12132 30.8966 5.25463 35.8516L5.17507 36.3107L19.9697 51.1904C20.738 51.9653 21.8036 52.4096 22.8901 52.4096H31.5633C36.4411 52.4096 40.4104 56.4001 40.4104 61.3088V75.1882L41.388 75.0892C49.0208 74.3206 56.2077 70.886 61.6236 65.4193L62.2516 64.7876L57.2838 59.7905C55.9272 58.4175 55.1757 56.5918 55.1694 54.6544V51.5147C55.1694 49.2214 53.3146 47.3557 51.0348 47.3557H41.3001C36.4223 47.3557 32.4531 43.3652 32.4531 38.4586V36.8245C32.4531 32.8466 35.6498 29.6037 39.596 29.5594C37.3434 22.5471 38.5849 14.6397 43.3161 8.6087ZM36.0559 8.23176C35.9094 8.24018 35.7629 8.25071 35.6163 8.26124C35.4405 8.36443 35.25 8.4655 35.0448 8.56448L36.0559 8.23176ZM30.056 9.13515C24.5983 10.4787 19.641 13.1804 15.5901 16.9014C15.5901 16.9604 15.5901 17.0193 15.5859 17.0783C15.5859 17.0783 15.3515 21.292 16.0235 24.954C16.2161 26.0111 16.4798 27.0219 16.8818 27.8221C17.0535 28.1612 17.177 28.5023 17.468 28.5992C17.7527 28.6961 17.8888 28.5107 18.0416 28.3486C18.3723 28.0032 18.6926 27.6052 19.0485 27.2115C19.9152 26.2533 20.9494 25.3499 22.3939 24.8171C23.7798 24.3054 25.5823 24.1054 28.0882 24.7413C28.5278 24.8551 29.0219 24.914 29.3736 24.9435C29.3778 24.7645 29.3778 24.5666 29.3652 24.4002C29.3045 23.6 29.1579 22.6755 29.0156 21.6732C28.7267 19.6621 28.4629 17.3773 28.6932 15.0651C28.9339 12.6245 29.4468 10.6745 30.056 9.13515ZM41.5953 34.0385C40.984 34.2091 40.3413 34.2996 39.6777 34.2996C38.2918 34.2996 37.1655 35.4326 37.1655 36.8245V38.4586C37.1655 40.7497 39.0203 42.6155 41.3001 42.6155H50.5554C48.5854 41.5794 46.7348 40.2296 45.0809 38.566C43.7034 37.1783 42.5415 35.6558 41.5953 34.0385ZM56.8274 44.795C58.6969 46.427 59.8818 48.834 59.8818 51.5147V54.6565C59.8818 55.3283 60.1414 55.9621 60.6145 56.438L65.2516 61.1066L65.8524 60.1969C69.3192 54.9534 71.2221 48.8908 71.3854 42.6092C66.874 44.9845 61.7282 45.7131 56.8274 44.795ZM73.0539 34.6955C79.684 27.9969 79.6756 17.1436 73.0267 10.4555C66.3695 3.75901 55.5588 3.75901 48.9015 10.4555C42.2422 17.152 42.2422 28.0264 48.9015 34.7229C55.5504 41.411 66.3402 41.4194 72.9995 34.7503L73.0267 34.7229L73.0539 34.6955ZM4.87571 44.9529C6.42279 60.7971 18.9732 73.472 34.7203 75.0892L35.698 75.1903V61.3088C35.698 59.0156 33.8431 57.1498 31.5633 57.1498H22.8943C20.5454 57.1498 18.276 56.2001 16.6389 54.5428L4.63287 42.466L4.87571 44.9529Z" fill="#43454D"/>
</svg>
