<svg width="193" height="188" viewBox="0 0 193 188" fill="none" xmlns="http://www.w3.org/2000/svg">
<path fill-rule="evenodd" clip-rule="evenodd" d="M47.0303 16.5813C50.3026 6.93863 59.4304 0 70.1779 0H134.281C142.278 0 149.952 3.17823 155.605 8.83369L184.018 37.2458C189.673 42.9021 192.85 50.5725 192.85 58.5698V146.246C192.85 159.744 181.909 170.686 168.41 170.686H145.82C142.548 180.329 133.42 187.266 122.672 187.266H24.4396C10.942 187.266 0 176.325 0 162.827V41.0216C0 27.524 10.942 16.5813 24.4396 16.5813H47.0303ZM164.796 142.632V122.175C162.308 126.973 157.294 130.256 151.52 130.256H148.029V133.745C148.029 137.072 146.94 140.148 145.098 142.632H164.796ZM28.0543 44.6344V159.213H119.057V151.65C119.057 148.585 120.043 145.747 121.713 143.438C119.486 140.828 118.14 137.442 118.14 133.745V130.256H114.65C106.401 130.256 99.705 123.558 99.705 115.311C99.705 107.063 106.401 100.366 114.65 100.366H118.14V96.8762C118.14 93.4084 119.323 90.215 121.308 87.6778C120.306 86.1334 119.6 84.3788 119.269 82.4958H106.731C92.629 82.4958 81.1961 71.0627 81.1961 56.9604V44.6344H28.0543ZM145.316 64.8997C146.493 68.1564 147.111 71.6214 147.111 75.1506V80.0574C147.111 82.8654 146.284 85.4827 144.86 87.6778C146.845 90.2141 148.029 93.4075 148.029 96.8762V100.366H151.52C157.294 100.366 162.308 103.648 164.796 108.447V65.9155H152.471C149.986 65.9155 147.586 65.5604 145.316 64.8997ZM126.935 28.0545H112.507L127.028 42.5751C126.966 41.8511 126.935 41.1201 126.935 40.3805V28.0545Z" fill="#43454D"/>
<path fill-rule="evenodd" clip-rule="evenodd" d="M18.7978 36.1395C18.7978 36.1395 12.1531 28.834 49.1386 31.4026C86.1241 33.9711 56.977 29.1514 60.9808 18.3762C62.2692 14.91 140.316 11.741 146.245 17.192C162.382 32.029 169.465 36.7576 174.666 55.087C179.867 73.4163 175.841 115.849 175.85 137.982C175.859 160.115 180.315 154.067 160.455 156.93C140.596 159.792 135.686 157.671 130.85 166.404C126.013 175.136 108.165 173.046 78.3687 172.611C48.5737 172.178 22.4381 174.896 18.7978 169.956C15.1587 165.017 16.8474 146.198 15.2451 119.035C13.4001 87.7264 18.7978 36.1395 18.7978 36.1395Z" fill="#EB5D40"/>
<path fill-rule="evenodd" clip-rule="evenodd" d="M134.978 79.9885L129.057 68.1463L104.188 69.3305C104.188 69.3305 98.6286 67.6253 95.8989 56.3041C93.1693 44.983 94.7147 32.6198 94.7147 32.6198L23.6616 31.4355L15.3721 36.1724V164.068L22.4774 173.542H129.057L133.794 164.068L132.61 149.857V98.936L134.978 79.9885Z" fill="white"/>
<path fill-rule="evenodd" clip-rule="evenodd" d="M144.452 18.4089L142.083 39.7249L144.452 49.1986L158.663 52.7513H176.426L144.452 18.4089Z" fill="white" fill-opacity="0.33"/>
<path fill-rule="evenodd" clip-rule="evenodd" d="M137.214 160.788V162.828C137.214 170.859 130.703 177.369 122.672 177.369H24.4396C16.4083 177.369 9.89771 170.859 9.89771 162.828V41.0217C9.89771 32.9896 16.4083 26.4792 24.4396 26.4792H55.636V24.4409C55.636 16.4097 62.1466 9.89795 70.1778 9.89795H134.281C139.654 9.89795 144.808 12.0327 148.606 15.8326L177.019 44.2438C180.818 48.0438 182.952 53.1971 182.952 58.5699V146.246C182.952 154.278 176.442 160.788 168.41 160.788H137.214ZM168.854 47.7594L145.092 23.9969V40.3806C145.092 44.4558 148.395 47.7594 152.47 47.7594H168.854ZM63.8948 26.4792H88.5427C93.9155 26.4792 99.0699 28.6135 102.868 32.4134L131.281 60.8246C135.079 64.6246 137.214 69.777 137.214 75.1507V80.0575C137.214 82.337 135.364 84.187 133.084 84.187C130.805 84.187 128.955 82.337 128.955 80.0575V75.1507C128.955 74.2854 128.861 73.4304 128.681 72.5981H106.731C98.0953 72.5981 91.0937 65.5974 91.0937 56.9605V35.0122C90.2623 34.8305 89.4071 34.738 88.5427 34.738H24.4396C20.969 34.738 18.1565 37.5512 18.1565 41.0217V162.828C18.1565 166.297 20.969 169.11 24.4396 169.11H122.672C126.142 169.11 128.955 166.297 128.955 162.828V151.65C128.955 149.37 130.805 147.52 133.084 147.52C135.364 147.52 137.214 149.37 137.214 151.65V152.53H168.41C171.88 152.53 174.693 149.717 174.693 146.246V58.5699C174.693 57.7055 174.6 56.8505 174.419 56.0182H152.47C143.834 56.0182 136.833 49.0165 136.833 40.3806V18.4314C136.001 18.2507 135.145 18.1568 134.281 18.1568H70.1778C66.7082 18.1568 63.8948 20.9704 63.8948 24.4409V26.4792ZM128.037 120.358H114.65C111.864 120.358 109.603 118.096 109.603 115.311C109.603 112.525 111.864 110.264 114.65 110.264H128.037V96.8763C128.037 94.0903 130.299 91.8292 133.084 91.8292C135.87 91.8292 138.131 94.0903 138.131 96.8763V110.264H151.52C154.305 110.264 156.567 112.525 156.567 115.311C156.567 118.096 154.305 120.358 151.52 120.358H138.131V133.745C138.131 136.531 135.87 138.792 133.084 138.792C130.299 138.792 128.037 136.531 128.037 133.745V120.358ZM123.116 64.3393L99.3525 40.5777V56.9605C99.3525 61.0357 102.656 64.3393 106.731 64.3393H123.116Z" fill="#161719"/>
<path fill-rule="evenodd" clip-rule="evenodd" d="M36.1662 153.355C33.7418 153.355 31.5266 152.137 29.9868 149.757C27.7688 146.335 28.2598 142.447 31.4909 139.111C34.242 136.271 39.7652 133.542 46.4732 131.333C48.4461 127.562 50.4466 123.194 52.3214 118.388C53.3868 115.656 54.2631 113.171 54.9798 110.925C51.6377 104.667 49.7722 98.8462 50.3136 95.048C50.4742 93.9248 50.4926 87.3049 57.6961 87.2489C65.0648 87.1902 65.4125 93.5265 65.5887 94.6497C66.1375 98.1551 65.3052 103.763 63.513 110.154C66.7881 115.579 71.1386 121.315 75.4396 125.844C82.5642 125.471 88.5574 126.134 91.6232 127.984C94.6111 129.787 95.7434 132.741 94.7203 135.86C93.9366 138.249 92.5666 139.968 90.824 140.973C89.0694 141.986 86.913 142.292 84.5005 141.73C81.0611 140.928 76.7932 138.054 72.4739 133.975C66.0476 134.58 58.6228 135.874 52.0121 137.77C49.506 142.206 46.8843 146.044 44.3736 148.747C42.4961 150.768 40.6508 152.171 38.9559 152.819C38.008 153.182 37.0719 153.355 36.1662 153.355ZM60.3691 119.672C59.256 122.635 58.0135 125.63 56.6866 128.54C59.7084 127.861 62.7917 127.287 65.8227 126.838C63.9195 124.555 62.0778 122.134 60.3691 119.672Z" fill="#EB5D40"/>
</svg>
