<?xml version="1.0" encoding="UTF-8" standalone="no"?><!DOCTYPE svg PUBLIC "-//W3C//DTD SVG 1.1//EN" "http://www.w3.org/Graphics/SVG/1.1/DTD/svg11.dtd"><svg width="100%" height="100%" viewBox="0 0 658 199" version="1.1" xmlns="http://www.w3.org/2000/svg" xmlns:xlink="http://www.w3.org/1999/xlink" xml:space="preserve" xmlns:serif="http://www.serif.com/" style="fill-rule:evenodd;clip-rule:evenodd;stroke-linejoin:round;stroke-miterlimit:2;"><g id="logo-myYouShip"><path d="M148.992,177.897l12.05,20.874l-0.002,0.005l-107.361,0l-53.679,-92.979l0.002,-0.002l24.101,0l41.629,72.103l83.26,0Zm157.529,-55.256l-19.147,34.431l0,19.804l-14.134,0l0,-19.804l-19.147,-34.431l14.627,0l7.642,14.873l4.027,9.039l4.109,-9.039l7.642,-14.873l14.38,0Zm26.131,-0.822c5.478,0 10.203,1.109 14.175,3.328c3.972,2.219 7.026,5.41 9.162,9.573c2.137,4.163 3.205,9.176 3.205,15.038c0,5.862 -1.068,10.874 -3.205,15.038c-2.137,4.163 -5.191,7.355 -9.162,9.573c-3.972,2.219 -8.697,3.328 -14.175,3.328c-5.478,0 -10.217,-1.109 -14.216,-3.328c-3.999,-2.219 -7.067,-5.41 -9.203,-9.573c-2.137,-4.163 -3.205,-9.176 -3.205,-15.038c0,-5.862 1.068,-10.874 3.205,-15.038c2.137,-4.163 5.204,-7.355 9.203,-9.573c3.999,-2.219 8.738,-3.328 14.216,-3.328Zm0,11.093c-2.63,0 -4.848,0.63 -6.656,1.89c-1.808,1.26 -3.177,3.136 -4.109,5.629c-0.931,2.493 -1.397,5.602 -1.397,9.327c0,3.67 0.466,6.766 1.397,9.286c0.931,2.52 2.301,4.41 4.109,5.67c1.808,1.26 4.027,1.89 6.656,1.89c2.63,0 4.835,-0.63 6.615,-1.89c1.78,-1.26 3.136,-3.15 4.068,-5.67c0.931,-2.52 1.397,-5.615 1.397,-9.286c0,-3.725 -0.466,-6.834 -1.397,-9.327c-0.931,-2.493 -2.287,-4.369 -4.068,-5.629c-1.78,-1.26 -3.985,-1.89 -6.615,-1.89Zm82.503,-10.272l0,32.13c0,7.67 -2.041,13.408 -6.122,17.215c-4.081,3.807 -10.121,5.711 -18.119,5.711c-7.943,0 -13.97,-1.904 -18.078,-5.711c-4.109,-3.807 -6.163,-9.546 -6.163,-17.215l0,-32.13l14.216,0l0,32.377c0,3.89 0.835,6.793 2.506,8.71c1.671,1.917 4.177,2.876 7.519,2.876c3.397,0 5.93,-0.959 7.601,-2.876c1.671,-1.917 2.506,-4.821 2.506,-8.71l0,-32.377l14.134,0Z" style="fill:#eb5b3e;"/><path d="M168.442,0l53.682,92.977l-19.08,33.045l-53.679,-92.977l-107.361,0l19.078,-33.045l107.361,0Zm-156.387,84.916l107.361,0l53.682,92.977l-12.055,20.879l-53.679,-92.979l-107.361,0l12.053,-20.876Zm128.368,-36.383l53.679,92.977l-12.053,20.879l-53.682,-92.979l-107.361,0l12.055,-20.876l107.361,0Zm300.947,129.165c-4.109,0 -7.861,-0.794 -11.258,-2.383c-3.397,-1.589 -6.081,-3.835 -8.053,-6.738l6.081,-5.259c1.205,2.246 2.945,4.04 5.218,5.382c2.273,1.342 4.999,2.013 8.176,2.013c2.52,0 4.52,-0.438 5.999,-1.315c1.479,-0.877 2.219,-2.109 2.219,-3.698c0,-1.041 -0.342,-1.958 -1.027,-2.753c-0.685,-0.794 -1.986,-1.411 -3.903,-1.849l-8.628,-1.808c-4.383,-0.877 -7.505,-2.287 -9.368,-4.232c-1.863,-1.945 -2.794,-4.424 -2.794,-7.437c0,-2.246 0.657,-4.328 1.972,-6.245c1.315,-1.917 3.246,-3.465 5.793,-4.643c2.547,-1.178 5.602,-1.767 9.162,-1.767c4.109,0 7.615,0.726 10.518,2.178c2.903,1.452 5.122,3.52 6.656,6.204l-6.081,5.095c-1.041,-2.191 -2.575,-3.821 -4.602,-4.889c-2.027,-1.068 -4.136,-1.602 -6.327,-1.602c-1.753,0 -3.26,0.219 -4.52,0.657c-1.26,0.438 -2.219,1.041 -2.876,1.808c-0.657,0.767 -0.986,1.671 -0.986,2.712c0,1.096 0.411,2.054 1.233,2.876c0.822,0.822 2.301,1.452 4.437,1.89l9.368,1.972c3.944,0.767 6.725,2.068 8.341,3.903c1.616,1.835 2.424,4.068 2.424,6.697c0,2.63 -0.685,4.944 -2.054,6.944c-1.37,2 -3.342,3.547 -5.917,4.643c-2.575,1.096 -5.643,1.643 -9.203,1.643Zm26.707,-0.822l0,-59.576l8.793,0l0,25.063c1.37,-2.575 3.218,-4.451 5.547,-5.629c2.328,-1.178 4.917,-1.767 7.765,-1.767c2.903,0 5.519,0.562 7.848,1.685c2.328,1.123 4.177,2.808 5.547,5.054c1.37,2.246 2.054,5.095 2.054,8.546l0,26.624l-8.793,0l0,-23.83c0,-4.054 -0.835,-6.875 -2.506,-8.464c-1.671,-1.589 -3.766,-2.383 -6.286,-2.383c-1.753,0 -3.492,0.425 -5.218,1.274c-1.726,0.849 -3.15,2.219 -4.273,4.109c-1.123,1.89 -1.685,4.424 -1.685,7.601l0,21.694l-8.793,0Zm54.153,-47.99c-1.917,0 -3.383,-0.479 -4.396,-1.438c-1.013,-0.959 -1.52,-2.315 -1.52,-4.068c0,-1.753 0.507,-3.095 1.52,-4.027c1.013,-0.931 2.479,-1.397 4.396,-1.397c1.863,0 3.301,0.466 4.314,1.397c1.013,0.931 1.52,2.273 1.52,4.027c0,1.753 -0.507,3.109 -1.52,4.068c-1.013,0.959 -2.452,1.438 -4.314,1.438Zm4.355,6.903l0,41.087l-8.793,0l0,-41.087l8.793,0Zm21.365,34.304l0,24.04l-8.793,0l0,-58.344l7.807,0l0.441,7.715c0.57,-1.184 1.272,-2.277 2.107,-3.278c1.37,-1.643 3.082,-2.931 5.136,-3.862c2.054,-0.931 4.314,-1.397 6.779,-1.397c3.342,0 6.382,0.849 9.121,2.547c2.739,1.698 4.903,4.122 6.492,7.272c1.589,3.15 2.383,6.971 2.383,11.463c0,4.492 -0.808,8.341 -2.424,11.545c-1.616,3.205 -3.807,5.656 -6.574,7.355c-2.767,1.698 -5.848,2.547 -9.245,2.547c-3.506,0 -6.492,-0.918 -8.957,-2.753c-1.807,-1.345 -3.231,-2.963 -4.273,-4.852Zm11.34,0.456c3.561,0 6.341,-1.26 8.341,-3.78c2,-2.52 2.999,-5.999 2.999,-10.436c0,-4.437 -0.986,-7.93 -2.958,-10.477c-1.972,-2.547 -4.711,-3.821 -8.217,-3.821c-2.301,0 -4.314,0.589 -6.04,1.767c-1.726,1.178 -3.068,2.821 -4.027,4.93c-0.959,2.109 -1.438,4.643 -1.438,7.601c0,2.903 0.466,5.423 1.397,7.56c0.931,2.137 2.246,3.78 3.944,4.93c1.698,1.15 3.698,1.726 5.999,1.726Zm33.116,-4.766c1.863,0 3.355,0.534 4.478,1.602c1.123,1.068 1.685,2.506 1.685,4.314c0,1.808 -0.562,3.26 -1.685,4.355c-1.123,1.096 -2.616,1.643 -4.478,1.643c-1.917,0 -3.438,-0.548 -4.561,-1.643c-1.123,-1.096 -1.685,-2.547 -1.685,-4.355c0,-1.808 0.562,-3.246 1.685,-4.314c1.123,-1.068 2.643,-1.602 4.561,-1.602Zm21.283,-36.896c-1.917,0 -3.383,-0.479 -4.396,-1.438c-1.013,-0.959 -1.52,-2.315 -1.52,-4.068c0,-1.753 0.507,-3.095 1.52,-4.027c1.013,-0.931 2.479,-1.397 4.396,-1.397c1.863,0 3.301,0.466 4.314,1.397c1.013,0.931 1.52,2.273 1.52,4.027c0,1.753 -0.507,3.109 -1.52,4.068c-1.013,0.959 -2.452,1.438 -4.314,1.438Zm4.355,6.903l0,41.087l-8.793,0l0,-41.087l8.793,0Zm15.777,6.903l-7.889,0l0,-6.903l7.889,0l0,-9.614l8.793,-2.465l0,12.08l14.134,0l0,6.903l-14.134,0l0,21.858c0,2.027 0.534,3.506 1.602,4.437c1.068,0.931 2.506,1.397 4.314,1.397c1.479,0 2.767,-0.233 3.862,-0.698c1.096,-0.466 2.109,-1.109 3.04,-1.931l1.972,6.41c-1.26,1.096 -2.808,1.958 -4.643,2.588c-1.835,0.63 -3.876,0.945 -6.122,0.945c-2.356,0 -4.52,-0.383 -6.492,-1.15c-1.972,-0.767 -3.506,-2.013 -4.602,-3.739c-1.096,-1.726 -1.671,-3.985 -1.726,-6.779l0,-23.337Zm-295.246,-100.257l0,68.261l-18.617,0l0,-27.304l0.414,-22.03l-0.207,0l-14.997,49.334l-16.962,0l-14.79,-49.334l-0.31,0l0.414,22.03l0,27.304l-18.617,0l0,-68.261l29.787,0l9.205,32.372l3.413,13.549l0.207,0l3.413,-13.549l9.205,-32.372l28.442,0Zm80.362,0l-23.891,44.059l0,24.202l-21.202,0l0,-24.202l-23.995,-44.059l21.409,0l8.274,17.065l5.068,11.894l4.964,-11.894l8.377,-17.065l20.995,0Z" style="fill:#fff;"/></g></svg>