<svg width="73" height="42" viewBox="0 0 73 42" fill="none" xmlns="http://www.w3.org/2000/svg">
<path d="M40.884 1.21201L31.036 18.295C31.02 18.323 31.004 18.348 30.985 18.374C29.805 20.03 28.226 22.778 26.244 26.616C26.151 26.796 26.098 27.006 26.098 27.208V40.691C26.098 41.388 25.533 41.952 24.837 41.952H16.07C15.373 41.952 14.809 41.387 14.809 40.691V27.155C14.809 26.987 14.782 26.826 14.72 26.669C14.214 25.375 13.509 24.01 12.608 22.579C10.916 19.976 10.008 18.562 9.88 18.337L0.024 1.20901C-0.008 1.19301 -0.008 1.11701 0.024 0.976013H10.762C11.238 0.976013 11.673 1.24401 11.888 1.66901L19.392 16.532C19.86 17.459 21.185 17.455 21.647 16.525L29.022 1.67601C29.235 1.24701 29.673 0.976013 30.152 0.976013H40.884V1.21201ZM60.432 30.241H46.759L39.923 18.4H35.965L44.78 33.669H62.411L60.432 30.241Z" fill="#EB5B3E"/>
<path d="M59.025 8.99704L67.84 24.266L65.861 27.695L57.046 12.426H39.415L41.394 8.99704H59.025ZM37.945 14.972L35.966 18.401H53.597L62.412 33.67L64.391 30.241L55.576 14.972H37.945ZM63.626 1.02704H45.995L42.862 6.45404H60.493L69.308 21.723L72.441 16.296L63.626 1.02704ZM36.643 33.846L33.025 33.093C32.233 32.939 31.693 32.683 31.403 32.326C31.113 31.969 30.969 31.578 30.969 31.154C30.969 30.73 31.099 30.348 31.36 30.01C31.621 29.673 31.997 29.407 32.489 29.214C32.982 29.021 33.575 28.924 34.27 28.924C35.061 28.924 35.823 29.123 36.557 29.518C37.18 29.854 37.656 30.353 37.986 31.016C38.08 31.205 38.308 31.282 38.485 31.166L39.824 30.287C39.974 30.188 40.031 29.984 39.945 29.826C39.465 28.941 38.78 28.245 37.89 27.738C36.905 27.178 35.699 26.898 34.271 26.898C33.132 26.898 32.143 27.096 31.304 27.492C30.464 27.888 29.818 28.414 29.364 29.069C28.91 29.725 28.683 30.45 28.683 31.241C28.683 32.245 28.987 33.084 29.595 33.76C30.203 34.435 31.212 34.917 32.621 35.207L36.095 35.931C36.829 36.085 37.325 36.331 37.586 36.668C37.846 37.007 37.976 37.378 37.976 37.783C37.976 38.42 37.686 38.936 37.108 39.332C36.529 39.727 35.727 39.926 34.705 39.926C33.546 39.926 32.558 39.675 31.737 39.173C31.027 38.739 30.466 38.16 30.052 37.436C29.949 37.256 29.721 37.195 29.553 37.316L28.17 38.312C28.02 38.42 27.975 38.634 28.075 38.789C28.7 39.753 29.554 40.507 30.637 41.053C31.824 41.651 33.122 41.951 34.531 41.951C35.669 41.951 36.673 41.767 37.541 41.4C38.41 41.034 39.085 40.508 39.568 39.823C40.05 39.138 40.291 38.343 40.291 37.434C40.291 36.547 40.021 35.794 39.481 35.177C38.94 34.559 37.995 34.116 36.643 33.846Z" fill="#252528"/>
</svg>
