<svg width="73" height="41" viewBox="0 0 73 41" fill="none" xmlns="http://www.w3.org/2000/svg">
<path d="M40.884 0.236L31.036 17.319C31.02 17.347 31.004 17.372 30.985 17.398C29.805 19.054 28.226 21.802 26.244 25.64C26.151 25.82 26.098 26.03 26.098 26.232V39.715C26.098 40.412 25.533 40.976 24.837 40.976H16.07C15.373 40.976 14.809 40.411 14.809 39.715V26.179C14.809 26.011 14.782 25.85 14.72 25.693C14.214 24.399 13.509 23.034 12.608 21.603C10.916 19 10.008 17.586 9.88 17.361L0.024 0.233C-0.008 0.217 -0.008 0.141 0.024 0H10.762C11.238 0 11.673 0.268 11.888 0.693L19.392 15.556C19.86 16.483 21.185 16.479 21.647 15.549L29.022 0.7C29.235 0.271 29.673 0 30.152 0H40.884V0.236ZM60.432 29.265H46.759L39.923 17.424H35.965L44.78 32.693H62.411L60.432 29.265Z" fill="#EB5B3E"/>
<path d="M59.025 8.02103L67.84 23.29L65.861 26.719L57.046 11.45H39.415L41.394 8.02103H59.025ZM37.945 13.996L35.966 17.425H53.597L62.412 32.694L64.391 29.265L55.576 13.996H37.945ZM63.626 0.0510254H45.995L42.862 5.47803H60.493L69.308 20.747L72.441 15.32L63.626 0.0510254ZM36.643 32.87L33.025 32.117C32.233 31.963 31.693 31.707 31.403 31.35C31.113 30.993 30.969 30.602 30.969 30.178C30.969 29.754 31.099 29.372 31.36 29.034C31.621 28.697 31.997 28.431 32.489 28.238C32.982 28.045 33.575 27.948 34.27 27.948C35.061 27.948 35.823 28.147 36.557 28.542C37.18 28.878 37.656 29.377 37.986 30.04C38.08 30.229 38.308 30.306 38.485 30.19L39.824 29.311C39.974 29.212 40.031 29.008 39.945 28.85C39.465 27.965 38.78 27.269 37.89 26.762C36.905 26.202 35.699 25.922 34.271 25.922C33.132 25.922 32.143 26.12 31.304 26.516C30.464 26.912 29.818 27.438 29.364 28.093C28.91 28.749 28.683 29.474 28.683 30.265C28.683 31.269 28.987 32.108 29.595 32.784C30.203 33.459 31.212 33.941 32.621 34.231L36.095 34.955C36.829 35.109 37.325 35.355 37.586 35.692C37.846 36.031 37.976 36.402 37.976 36.807C37.976 37.444 37.686 37.96 37.108 38.356C36.529 38.751 35.727 38.95 34.705 38.95C33.546 38.95 32.558 38.699 31.737 38.197C31.027 37.763 30.466 37.184 30.052 36.46C29.949 36.28 29.721 36.219 29.553 36.34L28.17 37.336C28.02 37.444 27.975 37.658 28.075 37.813C28.7 38.777 29.554 39.531 30.637 40.077C31.824 40.675 33.122 40.975 34.531 40.975C35.669 40.975 36.673 40.791 37.541 40.424C38.41 40.058 39.085 39.532 39.568 38.847C40.05 38.162 40.291 37.367 40.291 36.458C40.291 35.571 40.021 34.818 39.481 34.201C38.94 33.583 37.995 33.14 36.643 32.87Z" fill="white"/>
</svg>
