<svg width="161" height="30" viewBox="0 0 161 30" fill="none" xmlns="http://www.w3.org/2000/svg">
<path d="M21.5623 26.1024L23.31 29.1659H7.77L0 15.5241H3.48813L9.51043 26.1024H21.5623ZM50.0645 3.50641L45.9137 11.9734C45.6515 12.5049 44.9087 12.5049 44.6466 11.9734L40.4229 3.49902C40.2992 3.25542 40.0588 3.1004 39.7894 3.1004H33.7453C33.7307 3.1816 33.7307 3.2259 33.7453 3.23328L39.2869 12.9995C39.3598 13.125 39.8695 13.937 40.8235 15.4208C41.3332 16.2402 41.7264 17.0153 42.0104 17.7535C42.0469 17.842 42.0614 17.938 42.0614 18.034V25.7554C42.0614 26.154 42.3818 26.4715 42.7678 26.4715H47.6978C48.091 26.4715 48.4041 26.1467 48.4041 25.7554V18.0635C48.4041 17.9454 48.4333 17.8273 48.4842 17.7239C49.5984 15.5389 50.4868 13.9665 51.1495 13.0217C51.1568 13.0069 51.1713 12.9921 51.1786 12.9774L56.7203 3.23328V3.1004H50.6834C50.414 3.1004 50.1664 3.25542 50.0499 3.49902L50.0645 3.50641ZM78.9817 4.95326V24.6186C78.9671 25.844 77.8602 26.4641 75.6465 26.4715H61.1114C58.8976 26.4641 57.7835 25.844 57.7762 24.6186V4.95326C57.7835 3.72786 58.8976 3.11517 61.1114 3.1004H75.6465C77.8602 3.10778 78.9744 3.72786 78.9817 4.95326ZM72.6972 6.9316C72.6972 6.48869 72.3404 6.12698 71.9035 6.12698H64.8544C64.4175 6.12698 64.0607 6.48869 64.0607 6.9316V22.6476C64.0607 23.0906 64.4175 23.4523 64.8544 23.4523H71.9035C72.3404 23.4523 72.6972 23.0906 72.6972 22.6476V6.9316ZM102.379 3.10778H97.2233C96.9102 3.10778 96.6553 3.36615 96.6553 3.68357V22.8839C96.6553 23.2013 96.4005 23.4597 96.0873 23.4597H88.7106C88.3974 23.4597 88.1426 23.2013 88.1426 22.8839V3.67619C88.1426 3.35877 87.8877 3.1004 87.5746 3.1004H82.4188C82.1057 3.1004 81.8508 3.35877 81.8508 3.67619V24.6186C81.8581 25.844 82.9723 26.4641 85.186 26.4715H99.59C101.804 26.4641 102.918 25.844 102.925 24.6186V3.67619C102.925 3.35877 102.67 3.1004 102.357 3.1004L102.379 3.10778Z" fill="#EB5B3E"/>
<path d="M132.593 12.5049C133.146 13.3907 133.423 14.5276 133.423 15.9006V25.6742C133.423 25.8809 133.255 26.0507 133.051 26.0507H131.296C131.092 26.0507 130.925 25.8809 130.925 25.6742V16.7864C130.925 15.0295 130.554 13.8115 129.818 13.1176C129.075 12.4311 128.165 12.0842 127.08 12.0842C126.33 12.0842 125.58 12.2613 124.823 12.623C124.072 12.9847 123.453 13.5679 122.958 14.3873C122.47 15.1993 122.223 16.2844 122.223 17.6427V25.6742C122.223 25.8809 122.055 26.0507 121.851 26.0507H120.096C119.893 26.0507 119.725 25.8809 119.725 25.6742V3.27018C119.725 3.06348 119.893 2.8937 120.096 2.8937H121.851C122.055 2.8937 122.223 3.06348 122.223 3.27018V12.5714C122.762 11.6191 123.483 10.9326 124.386 10.5118C125.281 10.091 126.264 9.87697 127.328 9.87697C128.456 9.87697 129.476 10.091 130.393 10.5266C131.311 10.9621 132.046 11.6191 132.6 12.5123L132.593 12.5049ZM113.95 17.4877L110.04 16.6609C109.181 16.4911 108.598 16.2106 108.285 15.8194C107.972 15.4281 107.812 15 107.812 14.5349C107.812 14.0699 107.95 13.6491 108.234 13.28C108.518 12.9109 108.926 12.6156 109.457 12.409C109.989 12.1949 110.63 12.0915 111.38 12.0915C112.232 12.0915 113.062 12.3056 113.856 12.7411C114.526 13.1102 115.043 13.6565 115.399 14.3799C115.501 14.5866 115.749 14.6678 115.938 14.5423L117.387 13.5753C117.548 13.4646 117.613 13.2431 117.519 13.0733C117.002 12.1063 116.259 11.3386 115.298 10.7849C114.234 10.1722 112.931 9.8622 111.387 9.8622C110.156 9.8622 109.086 10.0763 108.176 10.5118C107.265 10.9473 106.566 11.5231 106.078 12.2392C105.59 12.9552 105.343 13.7525 105.343 14.6161C105.343 15.716 105.671 16.6388 106.326 17.377C106.981 18.1152 108.074 18.6467 109.596 18.9641L113.353 19.7613C114.147 19.9311 114.686 20.1969 114.963 20.5659C115.247 20.935 115.385 21.341 115.385 21.7913C115.385 22.4926 115.072 23.0536 114.446 23.4892C113.819 23.9247 112.953 24.1388 111.846 24.1388C110.593 24.1388 109.523 23.8656 108.634 23.312C107.87 22.8396 107.258 22.2047 106.814 21.4075C106.705 21.2082 106.457 21.1417 106.275 21.2746L104.782 22.3671C104.622 22.4852 104.571 22.7215 104.68 22.8912C105.357 23.9469 106.282 24.7736 107.447 25.3716C108.729 26.0285 110.135 26.3533 111.656 26.3533C112.887 26.3533 113.972 26.154 114.912 25.748C115.851 25.3494 116.579 24.7736 117.103 24.0207C117.628 23.2677 117.883 22.3967 117.883 21.4001C117.883 20.4035 117.591 19.6063 117.009 18.9272C116.426 18.248 115.399 17.7608 113.943 17.4656L113.95 17.4877ZM136.663 8.30463H138.375C138.586 8.30463 138.753 8.13484 138.753 7.92077V6.18602C138.753 5.97195 138.586 5.80217 138.375 5.80217H136.663C136.452 5.80217 136.285 5.97195 136.285 6.18602V7.92077C136.285 8.13484 136.452 8.30463 136.663 8.30463ZM155.64 13.6786C156.288 14.904 156.609 16.3878 156.609 18.1225C156.609 19.8573 156.281 21.3115 155.626 22.5517C154.97 23.7918 154.097 24.7367 153.012 25.3937C151.927 26.0507 150.74 26.3755 149.443 26.3755C148.147 26.3755 147.018 26.0507 146.05 25.4085C145.285 24.8991 144.703 24.2864 144.28 23.563V29.6235C144.28 29.8302 144.113 30 143.909 30H142.154C141.95 30 141.783 29.8302 141.783 29.6235V10.5635C141.783 10.3568 141.95 10.187 142.154 10.187H143.618C143.814 10.187 143.982 10.342 143.989 10.5413L144.127 13.0217C144.375 12.5271 144.674 12.062 145.059 11.656C145.606 11.095 146.261 10.6594 147.033 10.342C147.805 10.0246 148.642 9.8622 149.538 9.8622C150.812 9.8622 151.985 10.187 153.063 10.844C154.133 11.501 155 12.4385 155.648 13.6713L155.64 13.6786ZM154.111 18.1225C154.111 16.3066 153.689 14.845 152.844 13.7451C151.999 12.6452 150.812 12.0915 149.29 12.0915C148.285 12.0915 147.412 12.3425 146.662 12.8371C145.911 13.3317 145.329 14.033 144.907 14.9336C144.491 15.8342 144.28 16.8971 144.28 18.1225C144.28 19.3479 144.484 20.3888 144.892 21.2968C145.3 22.2047 145.875 22.906 146.618 23.408C147.361 23.9026 148.22 24.1535 149.203 24.1535C150.747 24.1535 151.956 23.5999 152.822 22.5C153.689 21.4001 154.118 19.9385 154.118 18.1225H154.111ZM138.396 10.187H136.641C136.437 10.187 136.27 10.3568 136.27 10.5635V25.6742C136.27 25.8809 136.437 26.0507 136.641 26.0507H138.396C138.6 26.0507 138.768 25.8809 138.768 25.6742V10.5635C138.768 10.3568 138.6 10.187 138.396 10.187ZM159.587 10.7997L160.082 11.5748H159.536L159.136 10.8735H158.837V11.5748H158.349V9.65551H159.252C159.478 9.65551 159.653 9.70719 159.777 9.81791C159.9 9.92864 159.966 10.0689 159.966 10.2461C159.966 10.4454 159.9 10.593 159.777 10.6964C159.718 10.7406 159.653 10.7776 159.58 10.7997H159.587ZM159.471 10.2756C159.471 10.1944 159.449 10.128 159.398 10.091C159.347 10.0541 159.281 10.032 159.187 10.032H158.837V10.5192H159.187C159.281 10.5192 159.354 10.497 159.398 10.4601C159.449 10.4232 159.471 10.3568 159.471 10.2756ZM161 10.6152C161 11.1836 160.825 11.6486 160.483 11.9956C160.141 12.3425 159.689 12.5197 159.121 12.5197C158.553 12.5197 158.102 12.3425 157.759 11.9956C157.417 11.6486 157.242 11.1836 157.242 10.6152C157.242 10.0468 157.417 9.58169 157.759 9.23474C158.102 8.8878 158.561 8.71063 159.121 8.71063C159.682 8.71063 160.141 8.8878 160.483 9.23474C160.825 9.58169 161 10.0468 161 10.6152ZM160.629 10.6152C160.629 10.1427 160.498 9.781 160.221 9.50049C159.944 9.21998 159.587 9.08711 159.121 9.08711C158.655 9.08711 158.298 9.21998 158.022 9.50049C157.745 9.77362 157.614 10.1427 157.614 10.6152C157.614 11.0876 157.745 11.4493 158.022 11.7224C158.298 12.003 158.655 12.1358 159.121 12.1358C159.587 12.1358 159.944 12.003 160.221 11.7224C160.498 11.4419 160.629 11.0802 160.629 10.6152ZM1.7477 12.4606L0 15.5241H15.54L23.31 29.1658L25.0577 26.1024L17.2877 12.4606H1.7477ZM8.84047 0L6.08056 4.8499H21.6206L29.3906 18.4916L32.1505 13.6417L24.3805 0H8.84047ZM4.78434 7.12352L3.03664 10.187H18.5766L26.3466 23.8287L28.0944 20.7653L20.3243 7.12352H4.78434Z" fill="white"/>
</svg>
