<svg width="73" height="36" viewBox="0 0 73 36" fill="none" xmlns="http://www.w3.org/2000/svg">
<g clip-path="url(#clip0_2002_672)">
<path fill-rule="evenodd" clip-rule="evenodd" d="M45.7373 24.0786C45.3012 24.0786 44.6299 24.0481 44.0489 23.9321V16.9573C44.6026 16.6941 45.3308 16.5468 46.2038 16.5468C48.3299 16.5468 49.7566 17.8661 49.7566 20.1803C49.7566 22.6708 48.2131 24.0786 45.7373 24.0786ZM46.4943 13.4429C45.5917 13.4429 44.6299 13.5573 44.0474 13.8526V7.81332H40.5522V26.4806C42.0965 26.8911 44.1066 27.0948 45.8541 27.0948C50.3384 27.0948 53.3109 24.6928 53.3109 20.2978C53.3109 16.1379 50.5439 13.4429 46.4943 13.4429ZM60.3483 13.3437C56.9252 13.3437 54.7096 14.6202 54.7096 18.5704V26.8842H58.2813V18.8069C58.2813 17.3221 59.0785 16.5514 60.613 16.5514C61.4693 16.5514 62.3552 16.6651 63.0933 16.9024V13.5817C62.1861 13.4307 61.2683 13.3513 60.3475 13.3444" fill="#414042"/>
<path fill-rule="evenodd" clip-rule="evenodd" d="M70.5531 24.0389C69.0376 24.0389 68.2518 23.2759 68.2518 21.8117V16.6445H72.8506V13.7153H68.2518V8.84033H64.7256V22.0467C64.7256 25.9434 66.9108 27.2047 70.2914 27.2047C71.1349 27.2047 72.0671 27.12 73 26.9704V23.6925C72.2734 23.9267 71.3988 24.0389 70.5531 24.0389Z" fill="#414042"/>
<path fill-rule="evenodd" clip-rule="evenodd" d="M15.3512 0C15.1502 0 14.9477 0.0427291 14.7945 0.128187L0.775942 7.81331L16.4799 17.01C16.6255 17.0886 16.737 17.2801 16.737 17.451V30.8664C16.7362 31.035 16.6164 31.2288 16.47 31.3074L15.6243 31.7797C15.5537 31.8171 15.4657 31.8362 15.3717 31.8362H15.355C15.2541 31.8393 15.1593 31.8194 15.0865 31.7797L14.2377 31.3074C14.0936 31.2296 13.9761 31.035 13.9761 30.8664V18.9076C13.9685 18.8199 13.9048 18.713 13.835 18.6726L0 10.5716V26.4401C0 26.7957 0.248028 27.2329 0.553703 27.413L14.8028 35.8665C14.9538 35.955 15.1517 36 15.3505 36H15.3558C15.5568 36 15.7585 35.9573 15.9095 35.8665L30.1601 27.413C30.4643 27.2321 30.7123 26.7957 30.7115 26.4401V10.5716L21.3358 16.0661C21.1901 16.1516 20.9641 16.1447 20.8238 16.057L19.9932 15.5595C19.9265 15.5175 19.8635 15.4504 19.8165 15.368L19.8074 15.3542C19.755 15.2672 19.7247 15.1742 19.7209 15.091L19.6997 14.1166C19.6944 13.9526 19.8013 13.7519 19.9454 13.6664L29.9356 7.81179L15.9186 0.128187C15.7646 0.041203 15.5606 0 15.3573 0H15.3512Z" fill="url(#paint0_linear_2002_672)"/>
</g>
<defs>
<linearGradient id="paint0_linear_2002_672" x1="4.18593" y1="30.5818" x2="17.4014" y2="19.5536" gradientUnits="userSpaceOnUse">
<stop stop-color="#A80034"/>
<stop offset="1" stop-color="#DB0031"/>
</linearGradient>
<clipPath id="clip0_2002_672">
<rect width="73" height="36" fill="white"/>
</clipPath>
</defs>
</svg>
