<svg width="109" height="24" viewBox="0 0 109 24" fill="none" xmlns="http://www.w3.org/2000/svg">
<g clip-path="url(#clip0_2002_659)">
<path d="M108.999 0H0V24H108.999V0Z" fill="#FFCC00"/>
<path d="M34.6649 9.03103H15.6862L19.1678 4.31021H39.2524C44.353 4.31021 45.6559 8.3289 44.2283 10.2613C43.1796 11.6818 41.9295 13.3791 41.9295 13.3791H34.1681C32.6924 13.3791 33.1381 12.776 33.3845 12.4427C33.8697 11.7893 34.6665 10.6704 35.1423 10.0285C35.6128 9.39369 35.6236 9.03103 34.6649 9.03103ZM29.4418 14.5452C27.9677 14.5452 28.4118 13.9382 28.6583 13.6072C29.1434 12.9538 29.9534 11.8481 30.4285 11.2039C30.8989 10.5691 30.9113 10.2064 29.9511 10.2064H21.2713L14.2764 19.689H31.333C36.966 19.689 40.1019 15.8675 41.0707 14.546H29.4411L29.4418 14.5452ZM40.5367 19.689H50.5426L54.3357 14.5437L44.3313 14.5452L40.5367 19.689ZM66.3528 4.31021L62.5148 9.51123H58.0497L61.8855 4.31021H51.8834L45.1909 13.3791H69.6639L76.3541 4.31021H66.3528ZM55.0077 19.6882H65.0097L68.8043 14.5452H58.8023L55.0077 19.6882ZM0 16.5735V17.6661H13.9354L14.7399 16.5735H0ZM16.2381 14.5444H0V15.6371H15.4297L16.2381 14.5444ZM0 19.689H12.4411L13.2433 18.6018H0V19.689ZM95.1204 16.5735L94.3159 17.6661H108.999V16.5735H95.1204ZM92.8239 19.689H108.998V18.6018H93.6245L92.8239 19.689ZM109 14.5444H96.617L95.8125 15.6371H109V14.5444ZM83.5148 13.3791L90.2074 4.31021H79.614L72.9175 13.3791H83.5148ZM72.0588 14.5444C72.0588 14.5444 71.3271 15.542 70.9729 16.0206C69.7158 17.7149 70.8272 19.6875 74.9265 19.6875H90.9909L94.7856 14.5444H72.0588Z" fill="#D3072A"/>
</g>
<defs>
<clipPath id="clip0_2002_659">
<rect width="109" height="24" fill="white"/>
</clipPath>
</defs>
</svg>
