<svg width="86" height="24" viewBox="0 0 86 24" fill="none" xmlns="http://www.w3.org/2000/svg">
<g clip-path="url(#clip0_2002_625)">
<path d="M80.4719 20.8852C80.4719 19.2413 81.7655 18.1305 83.2352 18.1305C84.7049 18.1305 85.9999 19.2413 85.9999 20.8852C85.9999 22.5291 84.7064 23.6399 83.2352 23.6399C81.764 23.6399 80.4719 22.5291 80.4719 20.8852ZM83.2499 20.5726C83.7202 20.5726 83.8521 20.3216 83.8521 20.0989C83.8521 19.8345 83.7202 19.6274 83.2499 19.6274H82.6477V20.5726H83.2499ZM82.6477 21.0025V22.5128H82.1642V19.1811H83.3671C84.0732 19.1811 84.3983 19.4915 84.3983 20.0981C84.3983 20.4694 84.1469 20.7656 83.8241 20.808V20.825C84.102 20.8689 84.2059 21.122 84.2641 21.5802C84.3091 21.8749 84.3681 22.3947 84.472 22.5128H83.8978C83.7637 22.2024 83.7791 21.7576 83.6752 21.3886C83.5904 21.1072 83.443 21.0025 83.1202 21.0025H82.6477ZM85.4692 20.8852C85.4692 19.5531 84.5309 18.5753 83.2352 18.5753C81.9394 18.5753 81.0011 19.5531 81.0011 20.8852C81.0011 22.2172 81.9416 23.1951 83.2352 23.1951C84.5287 23.1951 85.4692 22.2195 85.4692 20.8852Z" fill="#EB5E03"/>
<path d="M70.8946 23.1602L67.709 19.5606L64.5514 23.1602H57.9075L64.4017 15.8087L57.9075 8.45789H64.7592L67.975 12.0286L71.0722 8.45789H77.6859L71.2233 15.7782L77.7751 23.1602H70.8946Z" fill="#EB5E03"/>
<path d="M45.146 0V23.1595H57.9075V17.985H50.5516V13.4245H57.9075V8.45714H50.5516V5.16412H57.9075V0H45.146Z" fill="#EB5E03"/>
<path d="M36.4965 19.6341C34.5138 19.6341 33.2785 17.7719 33.2785 15.8272C33.2785 13.7475 34.3531 11.7501 36.4965 11.7501C38.721 11.7501 39.6069 13.7475 39.6069 15.8272C39.6069 17.7986 38.6686 19.6341 36.4965 19.6341ZM17.3689 13.4943C17.7087 12.0234 18.8401 11.0611 20.2545 11.0611C21.8105 11.0611 22.8851 11.9937 23.1689 13.4943H17.3689ZM39.7639 0V9.47808H39.7057C38.5124 8.09851 37.0242 7.61959 35.298 7.61959C31.7572 7.61959 29.092 10.0431 28.1551 13.247C27.0879 9.71568 24.3364 7.55276 20.2553 7.55276C16.9407 7.55276 14.3234 9.0504 12.9576 11.4925V8.45788H6.10806V5.16264H13.5826V0H0V23.161H6.10732V13.426H12.194C12.0127 14.1395 11.9147 14.9058 11.9147 15.7144C11.9147 20.5451 15.5786 23.9354 20.2545 23.9354C24.1868 23.9354 26.7776 22.0747 28.147 18.6844H22.9161C22.2078 19.7039 21.6697 20.0068 20.2553 20.0068C18.6138 20.0068 17.1994 18.5649 17.1994 16.8541H27.8544C28.3173 20.6914 31.284 24 35.3555 24C37.112 24 38.721 23.1305 39.7049 21.6596H39.7632V23.161H45.1452V0H39.7639Z" fill="#4E2182"/>
</g>
<defs>
<clipPath id="clip0_2002_625">
<rect width="86" height="24" fill="white"/>
</clipPath>
</defs>
</svg>
