<svg width="68" height="22" viewBox="0 0 68 22" fill="none" xmlns="http://www.w3.org/2000/svg">
<g clip-path="url(#clip0_2002_664)">
<path d="M64.2492 21.9047C66.3213 21.9047 68.0001 20.2842 68.0001 18.2858C68.0001 16.2874 66.3206 14.6676 64.2492 14.6676C62.1778 14.6676 60.4983 16.2881 60.4983 18.2858C60.4983 20.2835 62.1778 21.904 64.2492 21.904" fill="#FFD100"/>
<path d="M10.7897 10.2472V14.9814H14.8734C14.276 15.8843 12.9314 16.365 12.0196 16.365C8.94626 16.365 7.40819 14.6757 7.40819 11.2652C7.40819 7.49987 9.43667 5.57297 13.4634 5.57297C15.0626 5.57297 17.1523 5.95767 19.3961 6.6406V0.979058C18.7495 0.712152 17.7666 0.504483 16.5064 0.296813C15.2153 0.0884632 14.0776 -5.15392e-05 13.0933 -5.15392e-05C9.09753 -5.15392e-05 5.93204 1.03761 3.56584 3.11294C1.19964 5.18827 0 7.97513 0 11.5035C0 14.7349 0.921714 17.2848 2.76585 19.1532C4.60998 21.0501 7.10001 21.9986 10.2352 21.9993C13.3832 21.9993 16.2763 20.423 17.2086 18.4226L17.1882 21.6425H21.7426V10.2472H10.7897ZM24.0152 21.6432V0.354688H31.0857V16.0994H38.7992V21.6432H24.0152ZM41.38 21.11V15.2994C42.4256 15.6248 43.6548 15.8917 45.0381 16.1294C46.422 16.3663 47.621 16.4848 48.6356 16.4848C50.3566 16.4848 51.2487 16.0695 51.2487 15.3287C51.2487 14.8548 50.9722 14.6171 49.7121 14.3502L47.2523 13.8164C43.0412 12.8972 41.0747 10.8519 41.0747 7.38276C41.0747 5.09908 41.9042 3.29065 43.5338 1.95681C45.1605 0.651553 47.4366 -0.000732422 50.2946 -0.000732422C52.2619 -0.000732422 55.2747 0.383966 57.1188 0.829944V6.37369C55.9734 6.09181 54.8146 5.86439 53.6459 5.69145C52.2626 5.4831 51.1868 5.39458 50.3875 5.39458C48.8818 5.39458 48.0206 5.80992 48.0206 6.55072C48.0206 6.99534 48.4203 7.29288 49.2505 7.49987L52.1092 8.15284C56.2893 9.10131 58.2263 11.1766 58.2263 14.705C58.2263 16.9587 57.3644 18.7365 55.6751 20.041C53.985 21.3456 51.6484 21.9972 48.6665 21.9972C45.8387 21.9972 42.98 21.6125 41.3822 21.1087" fill="#0619B1"/>
</g>
<defs>
<clipPath id="clip0_2002_664">
<rect width="68" height="22" fill="white"/>
</clipPath>
</defs>
</svg>
