<svg width="83" height="30" viewBox="0 0 83 30" fill="none" xmlns="http://www.w3.org/2000/svg">
<path d="M20.5552 8.51129C20.774 8.51129 20.9508 8.68787 20.9508 8.9063V11.4195C20.9508 11.6379 20.774 11.8156 20.5552 11.8156H17.6657C17.2928 11.8156 16.9178 11.7619 16.9178 11.7619V21.7205C16.9178 21.9389 16.7431 22.1166 16.5244 22.1166H13.387C13.1714 22.1166 12.9936 21.9389 12.9936 21.7205V11.7619C12.9936 11.7619 12.7167 11.8103 12.4127 11.8156H9.35507C9.13633 11.8156 8.95732 11.6381 8.95732 11.4195V8.9063C8.95732 8.68787 9.13615 8.51129 9.35507 8.51129H20.5552Z" fill="#F37021"/>
<path d="M73.6374 8.50617C73.8529 8.50617 74.033 8.68275 74.033 8.89899V11.4175C74.033 11.6328 73.853 11.8103 73.6374 11.8103H70.7448C70.3741 11.8103 70.0021 11.7566 70.0021 11.7566V21.7152C70.0021 21.9336 69.8244 22.1113 69.6033 22.1113H66.4725C66.2505 22.1113 66.0736 21.9336 66.0736 21.7152V11.7566C66.0736 11.7566 65.7998 11.805 65.4915 11.8103H62.4373C62.2216 11.8103 62.0417 11.6328 62.0417 11.4175V8.89899C62.0417 8.68257 62.2216 8.50617 62.4373 8.50617H73.6374Z" fill="#F37021"/>
<path d="M68.0426 0C62.2765 0 57.266 3.28804 54.7721 8.08923C52.2728 3.28804 47.2645 0 41.4994 0C35.7344 0 30.725 3.28804 28.2289 8.08923C25.7329 3.28804 20.7202 0 14.9552 0C6.70806 0 0 6.72981 0 15.0011C0 23.2724 6.70806 30 14.9552 30C20.7202 30 25.7329 26.7109 28.2289 21.9064C30.725 26.7109 35.7344 30 41.4994 30C47.2645 30 52.2728 26.7109 54.7722 21.9064C57.2662 26.7109 62.2767 30 68.0428 30C76.2908 30 83 23.2711 83 15.0011C83 6.73109 76.2908 0 68.0426 0ZM14.9552 26.6215C8.56835 26.6215 3.37023 21.407 3.37023 15.0009C3.37023 8.59483 8.56835 3.38364 14.9552 3.38364C21.342 3.38364 26.5401 8.59282 26.5401 15.0009C26.5401 21.409 21.342 26.6215 14.9552 26.6215ZM41.4994 26.6215C35.1104 26.6215 29.9123 21.407 29.9123 15.0009C29.9123 8.59483 35.1104 3.38364 41.4994 3.38364C47.8885 3.38364 53.0877 8.59282 53.0877 15.0009C53.0877 21.409 47.8864 26.6215 41.4994 26.6215ZM68.0426 26.6215C61.6503 26.6215 56.4588 21.407 56.4588 15.0009C56.4588 8.59483 61.6505 3.38364 68.0426 3.38364C74.4348 3.38364 79.6276 8.59282 79.6276 15.0009C79.6276 21.409 74.4263 26.6215 68.0426 26.6215Z" fill="#F37021"/>
<path d="M47.2787 8.26233C47.5191 8.26233 47.6915 8.44421 47.6915 8.66264V21.3357C47.6915 21.5563 47.5127 21.734 47.2915 21.734H44.6714C44.5215 21.734 44.3255 21.6338 44.2349 21.5134C44.2349 21.5134 39.4916 15.0558 39.371 14.8879C39.2105 14.6728 39.0531 14.2734 39.0531 14.2734V21.3359C39.0531 21.5565 38.8731 21.7342 38.6564 21.7342H35.7022C35.4857 21.7342 35.31 21.5567 35.31 21.3359V8.66264C35.31 8.44421 35.4857 8.26763 35.7022 8.26763H38.3234C38.4776 8.26763 38.6738 8.3678 38.7631 8.48716C38.7631 8.48716 43.4255 14.8349 43.6237 15.1115C43.7831 15.3277 43.946 15.726 43.946 15.726V8.66246C43.946 8.44402 44.1229 8.26745 44.3416 8.26745C44.3416 8.26745 47.0898 8.26215 47.2786 8.26215" fill="#F37021"/>
</svg>
