<svg width="31" height="37" viewBox="0 0 31 37" fill="none" xmlns="http://www.w3.org/2000/svg">
<g clip-path="url(#clip0_2002_618)">
<path d="M0.0109863 3.49574V21.7519C0.0109863 25.5816 1.45403 28.7854 4.18455 31.0171C6.59183 33 14.1082 36.3381 15.4564 36.9292C16.8045 36.3376 24.3281 32.9939 26.7227 30.9778C29.4598 28.7754 30.9018 25.5722 30.9018 21.7082V3.49574C26.5197 1.19105 21.4635 0.0702209 15.4564 0.0702209C9.44922 0.0702209 4.39306 1.19105 0.0109863 3.49574Z" fill="#140500"/>
<path d="M25.8341 34.3674C25.133 34.3674 24.5196 34.9369 24.5196 35.6834C24.5196 36.3862 25.0894 36.9994 25.8341 36.9994C26.5335 36.9994 27.1469 36.4299 27.1469 35.6834C27.1033 34.9369 26.5335 34.3674 25.8341 34.3674ZM26.8844 35.6834C26.8844 36.2546 26.4039 36.7362 25.8341 36.7362C25.2642 36.7362 24.7827 36.2546 24.7827 35.6834C24.7827 35.1122 25.2648 34.5853 25.8341 34.5853C26.4033 34.5853 26.8844 35.0685 26.8844 35.6834ZM25.7905 35.1128C26.0536 35.1128 26.0536 35.2444 26.0536 35.3323C26.0536 35.4639 26.01 35.5961 25.7033 35.5961H25.6598V35.1128H25.7905ZM25.3519 34.8933V36.4741H25.6587V35.8156H25.7022C25.7022 35.8593 26.1402 36.4741 26.1402 36.4741H26.4894C26.4894 36.4741 26.0525 35.8593 26.0089 35.7713C26.2279 35.7277 26.3592 35.5518 26.3592 35.3323C26.3592 35.1128 26.2279 34.849 25.8335 34.849L25.3514 34.8927L25.3519 34.8933ZM4.15977 31.0309C1.4447 28.792 0 25.5888 0 21.7265V3.46699C4.29106 1.18442 9.50222 0 15.5006 0C21.4989 0 26.7089 1.14073 31 3.46699V21.7707C31 25.633 29.5553 28.8363 26.8402 31.0746C24.3441 33.1377 16.419 36.6057 15.5006 36.9994C14.5804 36.5615 6.65531 33.0934 4.15922 31.0304L4.15977 31.0309ZM21.4553 15.4063C21.4553 13.2116 23.2944 11.9382 25.0894 11.8939C26.5777 11.8502 27.5855 12.4209 28.0676 12.7726V15.143C27.4978 14.5719 26.5777 14.0449 25.6592 14.0449C24.9145 14.0449 24.0832 14.396 24.0832 15.3183C24.0396 16.2832 24.8704 16.6786 25.8346 17.2935C28.0676 18.6095 28.5061 19.7939 28.462 21.3753C28.4184 23.0867 27.2352 24.9739 24.5637 24.9739C23.5134 24.9739 22.462 24.6228 21.5871 24.1395V21.6391C22.2866 22.2523 23.2944 22.7356 24.1709 22.7356C25.1771 22.7356 25.7905 22.1644 25.7905 21.2437C25.7905 20.4093 25.3084 19.9261 24.1268 19.2249C21.8938 17.9072 21.4994 16.8544 21.4553 15.4068M14.9313 22.5597C15.1067 22.6477 15.457 22.7356 15.8078 22.7356C17.3402 22.7356 18.0832 21.2874 18.0832 18.3463C18.0832 15.3183 17.4274 14.0886 15.8503 14.0886C15.5011 14.0886 15.1067 14.1765 14.8877 14.2644L14.9313 22.5597ZM14.9313 30.4597H12.2162V12.8599C13.1799 12.245 14.362 11.8939 15.8503 11.8939C19.0911 11.8939 20.8424 14.3523 20.8424 18.2584C20.8424 22.2086 19.1352 24.886 16.1134 24.886C15.5452 24.886 15.1508 24.7981 14.8883 24.7544L14.9313 30.4597ZM2.80279 20.6725V12.1577H5.51676V20.7605C5.51676 21.5069 5.69218 22.6477 6.91898 22.6477C7.44357 22.6477 7.88156 22.5161 8.18826 22.2965V12.1577H10.8598V23.8774C9.80837 24.5786 8.45139 24.9739 6.7877 24.9739C4.1162 24.9739 2.80279 23.5257 2.80279 20.6725ZM29.5559 3.86235C27.6296 3.68651 25.6592 3.55491 23.6011 3.55491C16.1129 3.55491 8.05643 5.17836 1.40057 11.2807V21.727C1.40057 25.1498 2.67095 27.9593 5.03575 29.9344C7.13742 31.6458 13.6179 34.5858 15.457 35.4202C17.2519 34.6295 23.7324 31.7337 25.8782 29.9344C28.2866 27.9593 29.5123 25.194 29.5123 21.727V3.86235" fill="#F7BF00"/>
</g>
<defs>
<clipPath id="clip0_2002_618">
<rect width="31" height="37" fill="white"/>
</clipPath>
</defs>
</svg>
